<svg height="512pt" viewBox="-22 0 512 512.00051" width="512pt" xmlns="http://www.w3.org/2000/svg"><path d="m453.277344 217.835938c8.417968 0 15.238281-6.824219 15.238281-15.238282v-79.621094c0-5.808593-3.300781-11.109374-8.511719-13.671874l-219.019531-107.738282c-4.242187-2.089844-9.210937-2.089844-13.453125 0l-219.019531 107.738282c-5.210938 2.5625-8.511719 7.863281-8.511719 13.671874v79.621094c0 8.414063 6.824219 15.238282 15.238281 15.238282h23.171875v210.1875h-23.171875c-8.414062 0-15.238281 6.824218-15.238281 15.238281v53.5c0 8.417969 6.824219 15.238281 15.238281 15.238281h438.039063c8.417968 0 15.238281-6.820312 15.238281-15.238281v-53.5c0-8.414063-6.820313-15.238281-15.238281-15.238281h-23.171875v-210.1875zm-316.476563-111.800782c0-8.414062 6.820313-15.234375 15.234375-15.234375h164.445313c8.414062 0 15.234375 6.820313 15.234375 15.234375v49.757813c0 8.414062-6.820313 15.238281-15.234375 15.238281h-164.445313c-8.414062 0-15.234375-6.824219-15.234375-15.238281zm55.140625 321.988282h-68.902344v-210.1875h68.902344zm153.535156 0h-68.902343v-210.1875h68.902343zm0 0"/><path d="m167.273438 121.273438h133.96875v19.28125h-133.96875zm0 0"/></svg>