<svg width="74" height="74" viewBox="0 0 74 74" fill="none" xmlns="http://www.w3.org/2000/svg">
<path d="M7.70829 33.9169V24.6669C8.55929 24.6669 9.25 23.9762 9.25 23.1252C9.25 22.2742 8.55929 21.5835 7.70829 21.5835C3.45647 21.5835 0 25.043 0 29.2919V32.3752C0 34.9251 2.07504 37.0002 4.625 37.0002H7.70829C8.55929 37.0002 9.25 36.3095 9.25 35.4585C9.25 34.6075 8.55929 33.9169 7.70829 33.9169Z" fill="black"/>
<path d="M66.2917 21.5835C65.4407 21.5835 64.75 22.2742 64.75 23.1252C64.75 23.9762 65.4407 24.6669 66.2917 24.6669V33.9169C65.4407 33.9169 64.75 34.6076 64.75 35.4586C64.75 36.3096 65.4407 37.0002 66.2917 37.0002H69.375C71.925 37.0002 74 34.9251 74 32.3752V29.2919C74 25.043 70.5435 21.5835 66.2917 21.5835Z" fill="black"/>
<path d="M26.2082 64.75C25.3572 64.75 24.6664 65.4407 24.6664 66.2917H15.4164C15.4164 65.4407 14.7257 64.75 13.8747 64.75C13.0237 64.75 12.333 65.4407 12.333 66.2917V69.375C12.333 71.925 14.408 74 16.958 74H23.1249C25.6748 74 27.7499 71.925 27.7499 69.375V66.2917C27.7499 65.4407 27.0592 64.75 26.2082 64.75Z" fill="black"/>
<path d="M60.125 64.75C59.274 64.75 58.5833 65.4407 58.5833 66.2917H49.3333C49.3333 65.4407 48.6426 64.75 47.7916 64.75C46.9406 64.75 46.25 65.4407 46.25 66.2917V69.375C46.25 71.925 48.325 74 50.875 74H57.0417C59.5917 74 61.6667 71.925 61.6667 69.375V66.2917C61.6667 65.4407 60.976 64.75 60.125 64.75Z" fill="black"/>
<path d="M60.1243 0H13.8743C9.62234 0 6.16602 3.4595 6.16602 7.70828V60.125C6.16602 64.3738 9.62249 67.8333 13.8743 67.8333H60.1243C64.3763 67.8333 67.8326 64.3738 67.8326 60.125V7.70828C67.8326 3.4595 64.3763 0 60.1243 0ZM20.041 6.16671H53.9577C56.5077 6.16671 58.5827 8.24175 58.5827 10.7917C58.5827 13.3417 56.5077 15.4167 53.9577 15.4167H20.041C17.491 15.4167 15.416 13.3417 15.416 10.7917C15.416 8.24175 17.491 6.16671 20.041 6.16671ZM20.041 58.5833C17.491 58.5833 15.416 56.5082 15.416 53.9583C15.416 51.4083 17.491 49.3333 20.041 49.3333C22.591 49.3333 24.666 51.4083 24.666 53.9583C24.666 56.5082 22.5908 58.5833 20.041 58.5833ZM53.9576 58.5833C51.4076 58.5833 49.3326 56.5082 49.3326 53.9583C49.3326 51.4083 51.4076 49.3333 53.9576 49.3333C56.5075 49.3333 58.5826 51.4083 58.5826 53.9583C58.5826 56.5082 56.5075 58.5833 53.9576 58.5833ZM61.666 38.5417C61.666 41.0917 59.591 43.1667 57.041 43.1667H16.9576C14.4076 43.1667 12.3326 41.0917 12.3326 38.5417V23.125C12.3326 20.575 14.4076 18.5 16.9576 18.5H57.0409C59.5908 18.5 61.6659 20.575 61.6659 23.125V38.5417H61.666Z" fill="black"/>
</svg>
