<svg width="74" height="74" viewBox="0 0 74 74" fill="none" xmlns="http://www.w3.org/2000/svg">
<path d="M7.70829 33.9167V24.6667C8.55929 24.6667 9.25 23.976 9.25 23.125C9.25 22.274 8.55929 21.5833 7.70829 21.5833C3.45647 21.5833 0 25.0428 0 29.2917V32.375C0 34.9249 2.07504 37 4.625 37H7.70829C8.55929 37 9.25 36.3093 9.25 35.4583C9.25 34.6073 8.55929 33.9167 7.70829 33.9167Z" fill="white"/>
<path d="M66.2917 21.5833C65.4407 21.5833 64.75 22.274 64.75 23.125C64.75 23.976 65.4407 24.6667 66.2917 24.6667V33.9167C65.4407 33.9167 64.75 34.6074 64.75 35.4584C64.75 36.3094 65.4407 37 66.2917 37H69.375C71.925 37 74 34.9249 74 32.375V29.2917C74 25.0428 70.5435 21.5833 66.2917 21.5833Z" fill="white"/>
<path d="M26.2082 64.75C25.3572 64.75 24.6664 65.4407 24.6664 66.2917H15.4164C15.4164 65.4407 14.7257 64.75 13.8747 64.75C13.0237 64.75 12.333 65.4407 12.333 66.2917V69.375C12.333 71.925 14.408 74 16.958 74H23.1249C25.6748 74 27.7499 71.925 27.7499 69.375V66.2917C27.7499 65.4407 27.0592 64.75 26.2082 64.75Z" fill="white"/>
<path d="M60.125 64.75C59.274 64.75 58.5833 65.4407 58.5833 66.2917H49.3333C49.3333 65.4407 48.6426 64.75 47.7916 64.75C46.9406 64.75 46.25 65.4407 46.25 66.2917V69.375C46.25 71.925 48.325 74 50.875 74H57.0417C59.5917 74 61.6667 71.925 61.6667 69.375V66.2917C61.6667 65.4407 60.976 64.75 60.125 64.75Z" fill="white"/>
<path d="M60.1248 0H13.8748C9.62282 0 6.1665 3.4595 6.1665 7.70828V60.125C6.1665 64.3738 9.62297 67.8333 13.8748 67.8333H60.1248C64.3768 67.8333 67.8331 64.3738 67.8331 60.125V7.70828C67.8331 3.4595 64.3768 0 60.1248 0ZM20.0415 6.16671H53.9582C56.5082 6.16671 58.5832 8.24175 58.5832 10.7917C58.5832 13.3417 56.5082 15.4167 53.9582 15.4167H20.0415C17.4915 15.4167 15.4165 13.3417 15.4165 10.7917C15.4165 8.24175 17.4915 6.16671 20.0415 6.16671ZM20.0415 58.5833C17.4915 58.5833 15.4165 56.5082 15.4165 53.9583C15.4165 51.4083 17.4915 49.3333 20.0415 49.3333C22.5915 49.3333 24.6665 51.4083 24.6665 53.9583C24.6665 56.5082 22.5913 58.5833 20.0415 58.5833ZM53.9581 58.5833C51.4081 58.5833 49.3331 56.5082 49.3331 53.9583C49.3331 51.4083 51.4081 49.3333 53.9581 49.3333C56.508 49.3333 58.5831 51.4083 58.5831 53.9583C58.5831 56.5082 56.508 58.5833 53.9581 58.5833ZM61.6665 38.5417C61.6665 41.0917 59.5915 43.1667 57.0415 43.1667H16.9581C14.4081 43.1667 12.3331 41.0917 12.3331 38.5417V23.125C12.3331 20.575 14.4081 18.5 16.9581 18.5H57.0414C59.5913 18.5 61.6664 20.575 61.6664 23.125V38.5417H61.6665Z" fill="white"/>
</svg>
