<svg width="47" height="47" viewBox="0 0 47 47" fill="none" xmlns="http://www.w3.org/2000/svg">
<path d="M12.7293 19.5833C12.2926 19.5833 11.8735 19.6499 11.4564 19.7106C11.5915 19.2563 11.7305 18.7941 11.9538 18.379C12.177 17.7758 12.5256 17.2529 12.8722 16.7261C13.1621 16.1563 13.6732 15.7705 14.0492 15.2828C14.4428 14.8089 14.9794 14.4936 15.4044 14.1C15.8215 13.6888 16.3679 13.4831 16.8026 13.1933C17.2569 12.9328 17.6525 12.645 18.0755 12.5079L19.1311 12.0731L20.0593 11.6873L19.1095 7.89209L17.9404 8.17409C17.5664 8.26809 17.1101 8.37776 16.5911 8.50896C16.0604 8.60688 15.4944 8.87517 14.8639 9.11996C14.2411 9.39805 13.5204 9.58605 12.8507 10.0325C12.177 10.4595 11.3996 10.8159 10.7141 11.3877C10.0503 11.9772 9.24931 12.4883 8.65789 13.2383C8.01164 13.9394 7.37323 14.6758 6.87777 15.5139C6.30398 16.3129 5.91427 17.1903 5.50302 18.0578C5.13093 18.9253 4.83131 19.8125 4.58652 20.6741C4.12239 22.4014 3.91481 24.0425 3.83452 25.4466C3.76793 26.8527 3.8071 28.0218 3.88935 28.8678C3.91873 29.2673 3.97356 29.655 4.01273 29.9233L4.06168 30.2523L4.1126 30.2406C4.46091 31.8676 5.26274 33.3628 6.42532 34.5532C7.58791 35.7436 9.06374 36.5805 10.6821 36.9671C12.3005 37.3538 13.9952 37.2743 15.5703 36.738C17.1454 36.2017 18.5365 35.2304 19.5827 33.9365C20.6288 32.6426 21.2873 31.079 21.4819 29.4265C21.6765 27.774 21.3993 26.1002 20.6823 24.5987C19.9654 23.0971 18.838 21.8293 17.4305 20.9417C16.0231 20.0542 14.3932 19.5832 12.7293 19.5833ZM34.2709 19.5833C33.8342 19.5833 33.4151 19.6499 32.998 19.7106C33.1331 19.2563 33.2722 18.7941 33.4954 18.379C33.7187 17.7758 34.0673 17.2529 34.4139 16.7261C34.7037 16.1563 35.2148 15.7705 35.5908 15.2828C35.9845 14.8089 36.5211 14.4936 36.946 14.1C37.3631 13.6888 37.9095 13.4831 38.3443 13.1933C38.7986 12.9328 39.1942 12.645 39.6172 12.5079L40.6727 12.0731L41.601 11.6873L40.6512 7.89209L39.4821 8.17409C39.108 8.26809 38.6517 8.37776 38.1328 8.50896C37.6021 8.60688 37.0361 8.87517 36.4055 9.11996C35.7847 9.40001 35.0621 9.58605 34.3923 10.0345C33.7187 10.4614 32.9412 10.8178 32.2558 11.3897C31.5919 11.9791 30.791 12.4903 30.1996 13.2383C29.5533 13.9394 28.9149 14.6758 28.4194 15.5139C27.8456 16.3129 27.4559 17.1903 27.0447 18.0578C26.6726 18.9253 26.373 19.8125 26.1282 20.6741C25.6641 22.4014 25.4565 24.0425 25.3762 25.4466C25.3096 26.8527 25.3488 28.0218 25.431 28.8678C25.4604 29.2673 25.5152 29.655 25.5544 29.9233L25.6033 30.2523L25.6543 30.2406C26.0026 31.8676 26.8044 33.3628 27.967 34.5532C29.1296 35.7436 30.6054 36.5805 32.2238 36.9671C33.8421 37.3538 35.5369 37.2743 37.112 36.738C38.6871 36.2017 40.0782 35.2304 41.1243 33.9365C42.1705 32.6426 42.8289 31.079 43.0235 29.4265C43.2181 27.774 42.9409 26.1002 42.224 24.5987C41.507 23.0971 40.3796 21.8293 38.9722 20.9417C37.5648 20.0542 35.9348 19.5832 34.2709 19.5833Z" fill="white"/>
</svg>
