<svg width="74" height="74" viewBox="0 0 74 74" fill="none" xmlns="http://www.w3.org/2000/svg">
<path d="M55.0664 24.2029V12.9734C59.112 12.6069 62.293 9.19797 62.293 5.05859V2.16797C62.293 0.970672 61.3223 0 60.125 0H13.875C12.6777 0 11.707 0.970672 11.707 2.16797V5.05859C11.707 9.19811 14.888 12.607 18.9336 12.9734V24.2029C12.7539 29.377 8.81641 37.145 8.81641 45.8164C8.81641 61.3568 21.4596 74 37 74C52.5404 74 65.1836 61.3568 65.1836 45.8164C65.1836 37.145 61.2461 29.377 55.0664 24.2029ZM16.043 5.05859V4.33594H57.957V5.05859C57.957 7.05096 56.3361 8.67188 54.3438 8.67188H19.6562C17.6639 8.67188 16.043 7.05096 16.043 5.05859ZM23.2695 13.0078H50.7305V21.2116C46.6651 18.9339 41.982 17.6328 37 17.6328C32.018 17.6328 27.3349 18.9339 23.2695 21.2116V13.0078ZM37 69.6641C23.8504 69.6641 13.1523 58.966 13.1523 45.8164C13.1523 32.6668 23.8504 21.9688 37 21.9688C50.1496 21.9688 60.8477 32.6668 60.8477 45.8164C60.8477 58.966 50.1496 69.6641 37 69.6641Z" fill="white"/>
<path d="M32.6641 30.6406C31.4668 30.6406 30.4961 31.6113 30.4961 32.8086V38.5898C30.4961 39.7853 29.5235 40.7578 28.3281 40.7578C27.1327 40.7578 26.1602 39.7853 26.1602 38.5898V32.8086C26.1602 31.6113 25.1895 30.6406 23.9922 30.6406C22.7949 30.6406 21.8242 31.6113 21.8242 32.8086V38.5898C21.8242 41.4162 23.6368 43.8259 26.1602 44.7209V61.7148C26.1602 62.9121 27.1308 63.8828 28.3281 63.8828C29.5254 63.8828 30.4961 62.9121 30.4961 61.7148V44.7209C33.0195 43.8259 34.832 41.4162 34.832 38.5898V32.8086C34.832 31.6113 33.8614 30.6406 32.6641 30.6406Z" fill="white"/>
<path d="M41.3359 30.6406C40.1386 30.6406 39.168 31.6113 39.168 32.8086V61.7148C39.168 62.9121 40.1386 63.8828 41.3359 63.8828C42.5332 63.8828 43.5039 62.9121 43.5039 61.7148V53.7656H47.1172C49.9065 53.7656 52.1758 51.4963 52.1758 48.707V41.4805C52.1758 35.5034 47.313 30.6406 41.3359 30.6406ZM47.8398 48.707C47.8398 49.1055 47.5157 49.4297 47.1172 49.4297H43.5039V35.348C46.0276 36.2427 47.8398 38.6539 47.8398 41.4805V48.707Z" fill="white"/>
</svg>
