<svg width="74" height="74" viewBox="0 0 74 74" fill="none" xmlns="http://www.w3.org/2000/svg">
<path d="M71.6875 8.09375C72.3258 8.09375 72.8438 7.57691 72.8438 6.9375V2.3125C72.8438 1.67309 72.3258 1.15625 71.6875 1.15625H2.3125C1.67425 1.15625 1.15625 1.67309 1.15625 2.3125V6.9375C1.15625 7.57691 1.67425 8.09375 2.3125 8.09375H3.46875V35.8438H2.3125C1.67425 35.8438 1.15625 36.3606 1.15625 37V43.9375C1.15625 44.5769 1.67425 45.0938 2.3125 45.0938H71.6875C72.3258 45.0938 72.8438 44.5769 72.8438 43.9375V37C72.8438 36.3606 72.3258 35.8438 71.6875 35.8438H70.5312V8.09375H71.6875ZM3.46875 3.46875H70.5312V5.78125H3.46875V3.46875ZM46.25 35.8438V30.0625C46.25 29.4231 45.732 28.9062 45.0938 28.9062H28.9062C28.268 28.9062 27.75 29.4231 27.75 30.0625V35.8438H12.7188V13.1974L14.4531 11.4631L16.5263 13.5362L18.1612 11.9013L16.0881 9.82812L17.8224 8.09375H56.1776L57.9119 9.82812L55.8388 11.9013L57.4737 13.5362L59.5469 11.4631L61.2812 13.1974V35.8438H46.25ZM43.9375 35.8438H30.0625V31.2188H43.9375V35.8438ZM12.7188 9.92756V8.09375H14.5526L12.7188 9.92756ZM10.4062 18.0213L6.25994 13.875L10.4062 9.72869V18.0213ZM5.78125 16.6662L9.92756 20.8125L5.78125 24.9588V16.6662ZM10.4062 23.6037V31.8963L6.25994 27.75L10.4062 23.6037ZM61.2812 9.92756L59.4474 8.09375H61.2812V9.92756ZM63.5938 23.6037L67.7401 27.75L63.5938 31.8963V23.6037ZM68.2188 24.9588L64.0724 20.8125L68.2188 16.6662V24.9588ZM63.5938 18.0213V9.72869L67.7401 13.875L63.5938 18.0213ZM8.77131 8.09375L5.78125 11.0838V8.09375H8.77131ZM5.78125 30.5412L10.4062 35.1662V35.8438H5.78125V30.5412ZM70.5312 42.7812H3.46875V38.1562H70.5312V42.7812ZM63.5938 35.8438V35.1662L68.2188 30.5412V35.8438H63.5938ZM68.2188 11.0838L65.2287 8.09375H68.2188V11.0838Z" fill="white"/>
<path d="M46.457 28.2732L55.7119 14.3992L57.6359 15.6827L48.381 29.5566L46.457 28.2732Z" fill="white"/>
<path d="M43.2983 18.6802L53.7043 11.7387L54.9877 13.6627L44.5818 20.6042L43.2983 18.6802Z" fill="white"/>
<path d="M16.3853 15.6653L18.3093 14.3818L27.5641 28.2558L25.6401 29.5392L16.3853 15.6653Z" fill="white"/>
<path d="M19.0215 13.6848L20.3049 11.7608L30.7109 18.7023L29.4274 20.6263L19.0215 13.6848Z" fill="white"/>
<path d="M37 24.2812C38.2772 24.2812 39.3125 23.2459 39.3125 21.9688C39.3125 20.6916 38.2772 19.6562 37 19.6562C35.7228 19.6562 34.6875 20.6916 34.6875 21.9688C34.6875 23.2459 35.7228 24.2812 37 24.2812Z" fill="white"/>
<path d="M38.7341 25.4376H35.2653L32.1435 21.2751L30.2935 22.6626L33.7622 27.2876C33.9796 27.579 34.323 27.7501 34.6872 27.7501H39.3122C39.6764 27.7501 40.0187 27.579 40.2372 27.2876L43.706 22.6626L41.856 21.2751L38.7341 25.4376Z" fill="white"/>
<path d="M5.78125 58.9688C5.78125 60.8812 7.33756 62.4375 9.25 62.4375C11.1624 62.4375 12.7188 60.8812 12.7188 58.9688C12.7188 57.0563 11.1624 55.5 9.25 55.5C7.33756 55.5 5.78125 57.0563 5.78125 58.9688ZM10.4062 58.9688C10.4062 59.607 9.88709 60.125 9.25 60.125C8.61291 60.125 8.09375 59.607 8.09375 58.9688C8.09375 58.3305 8.61291 57.8125 9.25 57.8125C9.88709 57.8125 10.4062 58.3305 10.4062 58.9688Z" fill="white"/>
<path d="M15.2844 58.2461L11.0074 63.5938H7.49239L3.21427 58.2461L1.4082 59.6914L5.78114 65.1558V71.6875C5.78114 72.3269 6.29914 72.8438 6.93739 72.8438H11.5624C12.2006 72.8438 12.7186 72.3269 12.7186 71.6875V65.1558L17.0904 59.6914L15.2844 58.2461ZM8.09364 70.5312V65.9062H10.4061V70.5312H8.09364Z" fill="white"/>
<path d="M26.5938 62.4375C28.5062 62.4375 30.0625 60.8812 30.0625 58.9688C30.0625 57.0563 28.5062 55.5 26.5938 55.5C24.6813 55.5 23.125 57.0563 23.125 58.9688C23.125 60.8812 24.6813 62.4375 26.5938 62.4375ZM26.5938 57.8125C27.2308 57.8125 27.75 58.3305 27.75 58.9688C27.75 59.607 27.2308 60.125 26.5938 60.125C25.9567 60.125 25.4375 59.607 25.4375 58.9688C25.4375 58.3305 25.9567 57.8125 26.5938 57.8125Z" fill="white"/>
<path d="M32.6281 58.2461L28.3511 63.5938H24.8361L20.558 58.2461L18.752 59.6914L23.1249 65.1558V71.6875C23.1249 72.3269 23.6429 72.8438 24.2811 72.8438H28.9061C29.5444 72.8438 30.0624 72.3269 30.0624 71.6875V65.1558L34.4342 59.6914L32.6281 58.2461ZM25.4374 70.5312V65.9062H27.7499V70.5312H25.4374Z" fill="white"/>
<path d="M43.9375 58.9688C43.9375 60.8812 45.4938 62.4375 47.4062 62.4375C49.3187 62.4375 50.875 60.8812 50.875 58.9688C50.875 57.0563 49.3187 55.5 47.4062 55.5C45.4938 55.5 43.9375 57.0563 43.9375 58.9688ZM48.5625 58.9688C48.5625 59.607 48.0433 60.125 47.4062 60.125C46.7692 60.125 46.25 59.607 46.25 58.9688C46.25 58.3305 46.7692 57.8125 47.4062 57.8125C48.0433 57.8125 48.5625 58.3305 48.5625 58.9688Z" fill="white"/>
<path d="M53.4406 58.2461L49.1636 63.5938H45.6486L41.3705 58.2461L39.5645 59.6914L43.9374 65.1558V71.6875C43.9374 72.3269 44.4554 72.8438 45.0936 72.8438H49.7186C50.3569 72.8438 50.8749 72.3269 50.8749 71.6875V65.1558L55.2467 59.6914L53.4406 58.2461ZM46.2499 70.5312V65.9062H48.5624V70.5312H46.2499Z" fill="white"/>
<path d="M64.75 62.4375C66.6624 62.4375 68.2188 60.8812 68.2188 58.9688C68.2188 57.0563 66.6624 55.5 64.75 55.5C62.8376 55.5 61.2812 57.0563 61.2812 58.9688C61.2812 60.8812 62.8376 62.4375 64.75 62.4375ZM64.75 57.8125C65.3871 57.8125 65.9062 58.3305 65.9062 58.9688C65.9062 59.607 65.3871 60.125 64.75 60.125C64.1129 60.125 63.5938 59.607 63.5938 58.9688C63.5938 58.3305 64.1129 57.8125 64.75 57.8125Z" fill="white"/>
<path d="M70.7844 58.2461L66.5074 63.5938H62.9924L58.7143 58.2461L56.9082 59.6914L61.2811 65.1558V71.6875C61.2811 72.3269 61.7991 72.8438 62.4374 72.8438H67.0624C67.7006 72.8438 68.2186 72.3269 68.2186 71.6875V65.1558L72.5904 59.6914L70.7844 58.2461ZM63.5936 70.5312V65.9062H65.9061V70.5312H63.5936Z" fill="white"/>
<path d="M58.9688 50.875C58.9688 48.9626 57.4124 47.4062 55.5 47.4062C53.5876 47.4062 52.0312 48.9626 52.0312 50.875C52.0312 52.7874 53.5876 54.3438 55.5 54.3438C57.4124 54.3438 58.9688 52.7874 58.9688 50.875ZM54.3438 50.875C54.3438 50.2368 54.8629 49.7188 55.5 49.7188C56.1371 49.7188 56.6562 50.2368 56.6562 50.875C56.6562 51.5132 56.1371 52.0312 55.5 52.0312C54.8629 52.0312 54.3438 51.5132 54.3438 50.875Z" fill="white"/>
<path d="M47.6597 51.5977L52.2847 57.3789C52.5044 57.6529 52.8362 57.8125 53.1877 57.8125H57.8127C58.1642 57.8125 58.496 57.6529 58.7157 57.3789L63.3407 51.5977L61.5347 50.1523L57.2577 55.5H53.7427L49.4646 50.1523L47.6597 51.5977Z" fill="white"/>
<path d="M40.4688 50.875C40.4688 48.9626 38.9124 47.4062 37 47.4062C35.0876 47.4062 33.5312 48.9626 33.5312 50.875C33.5312 52.7874 35.0876 54.3438 37 54.3438C38.9124 54.3438 40.4688 52.7874 40.4688 50.875ZM35.8438 50.875C35.8438 50.2368 36.3629 49.7188 37 49.7188C37.6371 49.7188 38.1562 50.2368 38.1562 50.875C38.1562 51.5132 37.6371 52.0312 37 52.0312C36.3629 52.0312 35.8438 51.5132 35.8438 50.875Z" fill="white"/>
<path d="M44.8404 51.5977L43.0344 50.1523L38.7574 55.5H35.2424L30.9643 50.1523L29.1582 51.5977L33.7832 57.3789C34.0041 57.6529 34.3359 57.8125 34.6874 57.8125H39.3124C39.6639 57.8125 39.9957 57.6529 40.2154 57.3789L44.8404 51.5977Z" fill="white"/>
<path d="M21.9688 50.875C21.9688 48.9626 20.4124 47.4062 18.5 47.4062C16.5876 47.4062 15.0312 48.9626 15.0312 50.875C15.0312 52.7874 16.5876 54.3438 18.5 54.3438C20.4124 54.3438 21.9688 52.7874 21.9688 50.875ZM17.3438 50.875C17.3438 50.2368 17.8629 49.7188 18.5 49.7188C19.1371 49.7188 19.6562 50.2368 19.6562 50.875C19.6562 51.5132 19.1371 52.0312 18.5 52.0312C17.8629 52.0312 17.3438 51.5132 17.3438 50.875Z" fill="white"/>
<path d="M10.6597 51.5977L15.2847 57.3789C15.5044 57.6529 15.8362 57.8125 16.1877 57.8125H20.8127C21.1642 57.8125 21.496 57.6529 21.7157 57.3789L26.3407 51.5977L24.5347 50.1523L20.2577 55.5H16.7427L12.4646 50.1523L10.6597 51.5977Z" fill="white"/>
</svg>
