<svg width="170" height="170" viewBox="0 0 170 170" fill="none" xmlns="http://www.w3.org/2000/svg">
<path d="M170 85C170 131.945 131.945 170 85 170C38.0552 170 0 131.945 0 85C0 38.0552 38.0552 0 85 0C131.945 0 170 38.0552 170 85Z" fill="#00EDFF"/>
<path d="M115.135 164.497C147.204 152.334 170 121.331 170 84.9999C170 73.1259 167.561 61.8226 163.163 51.5569L138.066 26.46L31.8799 41.4545L72.8313 82.4059L44.3505 93.7106L115.135 164.497Z" fill="#07BEE8"/>
<path d="M119.831 79.8769C119.831 52.8163 104.088 30.8789 84.6683 30.8789C65.2483 30.8789 49.5054 52.8163 49.5054 79.8769V152.798H119.831V79.8769Z" fill="#23272B"/>
<path d="M120.443 79.8769C120.443 52.8163 104.7 30.8789 85.28 30.8789C85.2437 30.8789 85.2087 30.8802 85.1724 30.8815V152.798H120.443V79.8769Z" fill="black"/>
<path d="M97.7834 124.062V115.547H72.217V124.062C72.217 127.92 69.8033 131.368 66.1782 132.688L26.8662 147.004C42.0683 161.263 62.5129 170 85.0002 170C107.488 170 127.932 161.263 143.134 147.004L103.822 132.688C100.197 131.368 97.7834 127.92 97.7834 124.062Z" fill="#FFBEAA"/>
<path d="M143.134 147.004L103.822 132.688C100.197 131.368 97.7833 127.92 97.7833 124.062V115.547H84.8574V169.999C84.9054 169.999 84.9521 170 85.0001 170C107.487 170 127.932 161.263 143.134 147.004Z" fill="#FAA68E"/>
<path d="M63.6307 86.5266C63.6307 92.5914 58.7151 97.507 52.6503 97.507C46.5855 97.507 41.6699 92.5914 41.6699 86.5266C41.6699 80.4619 46.5855 75.5463 52.6503 75.5463C58.7151 75.5463 63.6307 80.4619 63.6307 86.5266Z" fill="#FFBEAA"/>
<path d="M126.799 86.5266C126.799 92.5914 121.883 97.507 115.818 97.507C109.754 97.507 104.837 92.5914 104.837 86.5266C104.837 80.4619 109.754 75.5463 115.818 75.5463C121.883 75.5463 126.799 80.4619 126.799 86.5266Z" fill="#FAA68E"/>
<path d="M99.6201 120.765L92.2882 124.531C87.7137 126.881 82.2871 126.881 77.7126 124.531L70.3806 120.765C59.5144 115.182 52.6831 103.993 52.6831 91.7768V63.1975C52.6831 45.3482 67.1511 30.8789 85.0004 30.8789C102.85 30.8789 117.318 45.3482 117.318 63.1962V91.7768C117.318 103.993 110.486 115.182 99.6201 120.765Z" fill="#FFCDBE"/>
<path d="M85.0001 30.8789C84.9521 30.8789 84.9054 30.8802 84.8574 30.8802V126.289C87.4047 126.312 89.9572 125.728 92.2879 124.531L99.6198 120.765C110.486 115.182 117.317 103.992 117.317 91.7768V63.1962C117.317 45.3482 102.849 30.8789 85.0001 30.8789Z" fill="#FFBEAA"/>
<path d="M101.7 74.4854H68.9639C58.933 74.4854 50.8008 66.3545 50.8008 56.3235C50.8008 46.2926 58.933 38.1604 68.9639 38.1604H101.7C111.731 38.1604 119.863 46.2926 119.863 56.3235C119.863 66.3545 111.731 74.4854 101.7 74.4854Z" fill="#23272B"/>
<path d="M101.7 38.1604H84.8574V74.4867H101.7C111.731 74.4867 119.863 66.3545 119.863 56.3235C119.863 46.2926 111.731 38.1604 101.7 38.1604Z" fill="black"/>
<path d="M115.818 74.4854H120.443V107.688H115.818V74.4854Z" fill="black"/>
<path d="M49.5054 74.4854H54.1292V107.688H49.5054V74.4854Z" fill="#23272B"/>
<path d="M120.443 77.4332L84.9743 83.3125L49.5054 77.4332V36.7322H120.443V77.4332Z" fill="#555A66"/>
<path d="M84.7241 36.7322V83.271L84.9744 83.3125L120.443 77.4332V36.7322H84.7241Z" fill="#414952"/>
<path d="M130.548 36.7322H134.37V77.6991H130.548V36.7322Z" fill="#555A66"/>
<path d="M132.157 36.7322H134.371V77.6991H132.157V36.7322Z" fill="#414952"/>
<path d="M138.118 90.6367H126.799L129.292 75.6772C129.55 74.1299 130.89 72.995 132.459 72.995C134.029 72.995 135.367 74.1299 135.625 75.6772L138.118 90.6367Z" fill="#FA5D0F"/>
<path d="M135.626 75.6772C135.368 74.1299 134.03 72.995 132.46 72.995C132.358 72.995 132.257 73.0002 132.157 73.0093V90.6355H138.119L135.626 75.6772Z" fill="#EF3800"/>
<path d="M31.8813 26.46H138.067V41.4545H31.8813V26.46Z" fill="#414952"/>
<path d="M84.7241 26.46H138.067V41.4545H84.7241V26.46Z" fill="#23272B"/>
<path d="M23.707 143.886C39.1024 159.907 60.7168 169.904 84.3365 169.996V159.375L54.1294 132.48L23.707 143.886Z" fill="#7E8596"/>
<path d="M146.293 143.886C130.898 159.907 109.284 169.904 85.332 169.996V159.375L115.871 132.48L146.293 143.886Z" fill="#707789"/>
</svg>
