<svg width="170" height="170" viewBox="0 0 170 170" fill="none" xmlns="http://www.w3.org/2000/svg">
<path d="M85 170C131.944 170 170 131.944 170 85C170 38.0558 131.944 0 85 0C38.0558 0 0 38.0558 0 85C0 131.944 38.0558 170 85 170Z" fill="#6C53A2"/>
<path d="M115.349 43.0345C116.785 42.39 118.407 43.4402 118.407 45.014V60.4495C118.407 72.3133 104.344 81.9329 87.0027 81.9329C69.6617 81.9329 55.5981 72.3133 55.5981 60.4495V45.014C55.5981 43.4405 57.2208 42.3903 58.6565 43.0345L86.1141 55.3598C86.6793 55.6135 87.3261 55.6135 87.8912 55.3598L115.349 43.0345Z" fill="#2D2667"/>
<path d="M90.3707 78.221C87.0278 78.1466 86.5348 73.4188 89.8405 72.689C98.9042 70.9246 106.068 66.3456 109.005 60.4394C109.691 59.0585 111.366 58.4954 112.747 59.1823C114.128 59.8686 114.69 61.5441 114.004 62.9243C110.291 70.4345 101.207 76.4274 90.3707 78.221Z" fill="#57409B"/>
<path d="M136.24 38.9321L88.0551 60.559C87.3861 60.8592 86.6207 60.8592 85.9517 60.559L37.7663 38.9321C35.7439 38.0244 35.7439 35.1533 37.7663 34.2455L85.9517 12.6187C86.6207 12.3185 87.3861 12.3185 88.0551 12.6187L136.24 34.2455C138.263 35.1533 138.263 38.0244 136.24 38.9321Z" fill="#57409B"/>
<path d="M119.295 38.5108C118.873 38.5108 118.445 38.4235 118.035 38.2395L88.1267 24.8158C86.5738 24.1189 85.8802 22.2954 86.5772 20.7428C87.2738 19.1899 89.0976 18.4969 90.6502 19.1932L120.559 32.6169C123.577 34.0054 122.579 38.4942 119.295 38.5108Z" fill="#6C53A2"/>
<path d="M42.6951 46.9485V61.6139H37.6704V46.2429C37.6704 44.9905 38.9617 44.1548 40.1042 44.6678L41.6754 45.373C42.296 45.6516 42.6951 46.2681 42.6951 46.9485Z" fill="#2D2667"/>
<path d="M48.0659 63.7266C48.0954 67.9786 44.5749 71.6273 40.1828 71.6097C29.7242 71.196 29.7308 56.2526 40.1828 55.8375C44.4255 55.7834 48.0988 59.3839 48.0659 63.7266Z" fill="#2D2667"/>
<path d="M46.2407 83.379C45.652 83.7343 45.0135 83.9063 44.3033 83.9093H36.0627C33.2766 83.9093 31.4345 81.0229 32.6012 78.4995L35.9455 71.2582C36.5707 69.9072 37.9217 69.0419 39.4069 69.0419C40.5089 69.0489 41.9509 68.9234 42.9018 69.5778C43.5549 69.9629 44.0912 70.5437 44.4205 71.2582L47.7648 78.4995C48.6304 80.3698 47.8375 82.441 46.2407 83.379Z" fill="#2D2667"/>
<path d="M46.242 83.3788C45.5889 82.9937 45.0527 82.413 44.7233 81.6984L41.3791 74.4572C40.5138 72.5812 41.3064 70.5156 42.9031 69.5776C43.5562 69.9628 44.0925 70.5435 44.4218 71.258L47.7661 78.4993C48.6317 80.3696 47.8388 82.4409 46.242 83.3788Z" fill="#57409B"/>
<path d="M48.0673 63.7268C48.0673 64.7428 47.8774 65.7087 47.5258 66.6021C44.7905 68.3407 41.3467 66.38 40.3014 62.9342C39.4471 60.098 40.497 57.2339 42.6632 56.2345C45.8108 57.2651 48.0717 60.2843 48.0673 63.7268Z" fill="#57409B"/>
<path d="M151.552 108.933C151.603 115.79 145.889 121.64 138.892 121.596H31.1079C27.7022 121.599 24.517 120.243 22.1563 117.888C15.8284 111.637 17.9309 100.714 26.1705 97.275C27.585 96.674 29.1323 96.3221 30.7526 96.2789C30.8801 96.2231 138.68 96.3121 138.892 96.2756C145.865 96.2275 151.597 102.062 151.552 108.933Z" fill="#EBD9EA"/>
<path d="M148.311 117.393C145.997 119.972 142.634 121.596 138.892 121.596H31.1077C27.4746 121.6 24.0713 120.047 21.688 117.393C24.0059 114.773 27.5371 113.16 31.1077 113.189H138.892C142.634 113.196 145.969 114.791 148.311 117.393Z" fill="#C2AACF"/>
<path d="M148.418 100.602C146.1 103.261 142.691 104.926 138.892 104.928H31.1079C27.4675 104.946 23.9138 103.306 21.5786 100.599C23.9493 97.8835 27.4459 96.2589 31.1079 96.2755H138.892C142.691 96.2841 146.072 97.9224 148.418 100.602Z" fill="white"/>
<path d="M80.1406 96.2754H89.8591V104.928H80.1406V96.2754Z" fill="#C0405C"/>
<path d="M85 96.2754H89.8593V104.928H85V96.2754Z" fill="#E9465E"/>
<path d="M96.7537 133.875C97.7256 134.397 105.504 138.558 106.242 138.956C107.024 139.376 107.865 138.506 107.422 137.738L99.4282 123.893L86.7715 131.2L94.7652 145.046C95.2088 145.814 96.3828 145.52 96.4104 144.632C96.4316 143.836 96.7218 134.93 96.7537 133.875Z" fill="#F39E22"/>
<path d="M89.7778 132.006L95.9167 142.639C96.0499 142.869 96.2471 143.004 96.459 143.055L96.7528 133.875L104.85 138.21C104.911 138.001 104.894 137.763 104.761 137.533L98.6218 126.9L89.7778 132.006Z" fill="#FAD98F"/>
<path d="M73.2461 133.932C73.2793 135.035 73.5655 143.852 73.5894 144.69C73.617 145.577 74.7911 145.872 75.2347 145.103L83.2283 131.258L70.5716 123.95L62.578 137.796C62.1344 138.564 62.9761 139.434 63.7583 139.014C64.4586 138.634 72.3164 134.432 73.2461 133.932Z" fill="#F39E22"/>
<path d="M71.3784 126.957L65.2394 137.59C65.1063 137.821 65.0887 138.059 65.1501 138.268L73.2474 133.932L73.5412 143.113C73.7531 143.062 73.9506 142.927 74.0834 142.697L80.2224 132.064L71.3784 126.957Z" fill="#FAD98F"/>
<path d="M101.135 118.114C101.135 109.203 93.9111 101.979 84.9998 101.979C63.5961 102.829 63.602 133.404 84.9998 134.251C93.9115 134.251 101.135 127.026 101.135 118.114Z" fill="#C0405C"/>
<path d="M98.8967 118.114C98.8967 110.439 92.6748 104.217 84.9996 104.217C66.5652 104.949 66.5705 131.282 84.9996 132.011C92.6748 132.011 98.8967 125.789 98.8967 118.114Z" fill="#E9465E"/>
<path d="M95.5572 118.113C94.9917 132.094 75.0373 132.159 74.44 118.113C74.359 110.066 83.3773 104.91 90.2546 108.956C93.5035 110.828 95.5618 114.295 95.5572 118.113Z" fill="#F39E22"/>
<path d="M95.5585 118.113C95.5585 118.485 95.5386 118.85 95.5021 119.212C94.0943 121.839 91.3251 123.625 88.1376 123.625C83.5257 123.625 79.7837 119.883 79.7837 115.271C79.7837 111.798 81.9087 108.816 84.9269 107.558C86.859 107.545 88.6908 108.054 90.256 108.956C93.5049 110.828 95.5632 114.295 95.5585 118.113Z" fill="#F9C744"/>
<path d="M94.2238 113.302C94.2238 115.712 92.2681 117.665 89.8576 117.665C84.0686 117.436 84.0732 109.165 89.8576 108.936C90.9921 108.854 94.2653 112.174 94.2238 113.302Z" fill="#FAD98F"/>
</svg>
