<svg id="Capa_1" enable-background="new 0 0 512 512" height="512" viewBox="0 0 512 512" width="512" xmlns="http://www.w3.org/2000/svg"><g><path d="m255.671 166c28.949 0 52.5-23.551 52.5-52.5s-23.551-52.5-52.5-52.5-52.5 23.551-52.5 52.5 23.552 52.5 52.5 52.5zm0-90c20.678 0 37.5 16.822 37.5 37.5s-16.822 37.5-37.5 37.5-37.5-16.822-37.5-37.5 16.823-37.5 37.5-37.5z"/><path d="m504.5 0h-497c-4.142 0-7.5 3.358-7.5 7.5v332c0 4.142 3.358 7.5 7.5 7.5h98v22.5c0 4.142 3.358 7.5 7.5 7.5h22.5v127.5c0 4.142 3.358 7.5 7.5 7.5h226c4.142 0 7.5-3.358 7.5-7.5v-127.5h22.5c4.142 0 7.5-3.358 7.5-7.5v-22.5h98c4.142 0 7.5-3.358 7.5-7.5v-332c0-4.142-3.358-7.5-7.5-7.5zm-354 377h15v120h-15zm181 0v120h-151v-120zm30 120h-15v-120h15zm-218.5-211h248.5v76h-271v-83.5c0-4.142-3.358-7.5-7.5-7.5h-22.5v-15h331v15h-278.5c-4.142 0-7.5 3.358-7.5 7.5s3.358 7.5 7.5 7.5zm192.25-45h-15l-.001-22.5c0-4.143-3.358-7.5-7.5-7.5s-7.5 3.358-7.5 7.5l.001 22.5h-98.5v-22.5c0-4.142-3.358-7.5-7.5-7.5s-7.5 3.358-7.5 7.5v22.5h-15v-22.5c0-12.407 10.093-22.5 22.5-22.5h113.5c12.407 0 22.5 10.093 22.5 22.5zm161.75 91h-90.5v-46h22.5c4.142 0 7.5-3.358 7.5-7.5v-30c0-4.142-3.358-7.5-7.5-7.5h-78.75v-22.5c0-20.678-16.822-37.5-37.5-37.5h-113.5c-20.678 0-37.5 16.822-37.5 37.5v22.5h-78.75c-4.142 0-7.5 3.358-7.5 7.5v30c0 4.142 3.358 7.5 7.5 7.5h22.5v46h-90.5v-317h482z"/></g></svg>