<svg width="170" height="170" viewBox="0 0 170 170" fill="none" xmlns="http://www.w3.org/2000/svg">
<path d="M170 85C170 98.4373 166.879 111.147 161.327 122.446C159.468 126.232 157.333 129.857 154.952 133.301C154.431 134.051 153.9 134.795 153.359 135.525C151.851 137.564 150.254 139.533 148.574 141.422C147.95 142.126 147.312 142.82 146.662 143.501C140.549 149.942 133.437 155.43 125.571 159.707C123.947 160.594 122.29 161.424 120.604 162.204C118.993 162.948 117.356 163.642 115.696 164.286C110.796 166.188 105.672 167.646 100.376 168.609C98.859 168.891 97.325 169.127 95.7777 169.323C92.2482 169.771 88.6523 170 85 170C82.0217 170 79.0799 169.847 76.1813 169.548C74.385 169.363 72.6086 169.123 70.8488 168.828C69.0393 168.526 67.2529 168.164 65.4832 167.749C63.9459 167.387 62.4219 166.985 60.9178 166.54C54.5893 164.674 48.5695 162.091 42.9482 158.88C41.567 158.093 40.209 157.27 38.8775 156.407C33.1965 152.728 27.9803 148.391 23.3418 143.501C22.6877 142.817 22.0502 142.123 21.426 141.419C20.327 140.184 19.2645 138.915 18.2418 137.614C17.1328 136.212 16.0703 134.775 15.051 133.304C12.667 129.861 10.532 126.228 8.67266 122.44C3.11777 111.144 0 98.4373 0 85C0 71.5627 3.11777 58.8559 8.67266 47.5602C10.532 43.7717 12.667 40.1393 15.051 36.6961C17.0133 33.8605 19.1416 31.1512 21.426 28.5813C36.9949 11.0467 59.7092 0 85 0C110.291 0 133.002 11.0467 148.574 28.5779C150.858 31.1479 152.987 33.8605 154.952 36.6994C157.333 40.1426 159.468 43.7684 161.327 47.5535C166.879 58.8525 170 71.5627 170 85Z" fill="#BC95E2"/>
<path d="M18.2402 57.7946H153.358V70.419H18.2402V57.7946Z" fill="#BD5423"/>
<path d="M18.2402 57.7946H153.358V64.1068H18.2402V57.7946Z" fill="#D9723E"/>
<path d="M153.358 130.877V135.525C151.851 137.564 150.254 139.533 148.574 141.422C147.95 142.126 147.312 142.82 146.661 143.501H23.3417C22.6876 142.817 22.0501 142.123 21.4259 141.419C20.3269 140.184 19.2644 138.915 18.2417 137.614V130.877H153.358Z" fill="#BD5423"/>
<path d="M149.541 137.19H18.2402V130.878H153.358V133.373C153.358 135.481 151.649 137.19 149.541 137.19Z" fill="#D9723E"/>
<path d="M21.4257 11.382V141.419C19.1413 138.849 17.013 136.139 15.0507 133.304C12.6667 129.861 10.5317 126.228 8.67236 122.44V11.382C8.67236 7.85911 11.5278 5.00696 15.0507 5.00696C16.8105 5.00696 18.4042 5.72083 19.5563 6.87297C20.7118 8.02844 21.4257 9.62219 21.4257 11.382Z" fill="#D9723E"/>
<path d="M18.2415 5.86025C16.3323 6.9626 15.0507 9.02451 15.0507 11.3819V133.304C12.6667 129.861 10.5317 126.228 8.67236 122.44V11.3819C8.67236 7.8624 11.5312 5.01025 15.0507 5.01025C16.2161 5.01025 17.3019 5.31904 18.2415 5.86025Z" fill="#BD5423"/>
<path d="M161.327 11.382V122.446C159.468 126.232 157.333 129.857 154.952 133.301C152.986 136.139 150.858 138.852 148.574 141.422V11.382C148.574 7.85911 151.429 5.00696 154.949 5.00696C156.712 5.00696 158.306 5.72083 159.458 6.87297C160.613 8.02844 161.327 9.62219 161.327 11.382Z" fill="#D9723E"/>
<path d="M158.14 5.86025C156.234 6.9626 154.952 9.02451 154.952 11.3819V133.3C152.986 136.139 150.858 138.852 148.574 141.422V11.3819C148.574 7.8624 151.433 5.01025 154.952 5.01025C156.117 5.01025 157.203 5.31904 158.14 5.86025Z" fill="#BD5423"/>
<path d="M47.4152 57.798H31.7254C30.3542 57.798 29.2422 56.6864 29.2422 55.3148V2.48662C29.2422 1.11533 30.3538 0.00335693 31.7254 0.00335693H47.4156C48.7869 0.00335693 49.8988 1.115 49.8988 2.48662V55.3148C49.8985 56.6861 48.7868 57.798 47.4152 57.798Z" fill="#F93D6E"/>
<path d="M36.6332 57.7934H31.7258C30.3545 57.7934 29.2422 56.6811 29.2422 55.3098V2.48359C29.2422 1.1123 30.3545 0 31.7258 0H36.6332C35.2619 0 34.1496 1.1123 34.1496 2.48359V55.3098C34.1496 56.6811 35.2619 57.7934 36.6332 57.7934Z" fill="#E41753"/>
<path d="M29.2422 7.05945H49.8985V12.1402H29.2422V7.05945Z" fill="#ECC32E"/>
<path d="M29.2422 45.2505H49.8985V50.3312H29.2422V45.2505Z" fill="#ECC32E"/>
<path d="M29.2422 7.05945H34.1496V12.1402H29.2422V7.05945Z" fill="#E7A52E"/>
<path d="M29.2422 45.2505H34.1496V50.3312H29.2422V45.2505Z" fill="#E7A52E"/>
<path d="M83.8544 57.798H78.9466C77.5753 57.798 76.4634 56.6864 76.4634 55.3148V2.48662C76.4634 1.11533 77.575 0.00335693 78.9466 0.00335693H83.8544C85.2256 0.00335693 86.3376 1.115 86.3376 2.48662V55.3148C86.3376 56.6861 85.226 57.798 83.8544 57.798Z" fill="#F93D6E"/>
<path d="M83.8544 57.7934H78.947C77.5757 57.7934 76.4634 56.6811 76.4634 55.3098V2.48359C76.4634 1.1123 77.5757 0 78.947 0H83.8544C82.4831 0 81.3708 1.1123 81.3708 2.48359V55.3098C81.3708 56.6811 82.4831 57.7934 83.8544 57.7934Z" fill="#E41753"/>
<path d="M76.4634 7.05945H86.3376V12.1402H76.4634V7.05945Z" fill="#ECC32E"/>
<path d="M76.4634 45.2505H86.3376V50.3312H76.4634V45.2505Z" fill="#ECC32E"/>
<path d="M76.4634 7.05945H81.3708V12.1402H76.4634V7.05945Z" fill="#E7A52E"/>
<path d="M76.4634 45.2505H81.3708V50.3312H76.4634V45.2505Z" fill="#E7A52E"/>
<path d="M125.572 150.228V159.707C123.949 160.594 122.292 161.424 120.605 162.204C118.995 162.948 117.358 163.642 115.698 164.286V150.228C115.698 148.856 116.81 147.744 118.181 147.744H123.089C124.46 147.744 125.572 148.856 125.572 150.228Z" fill="#F93D6E"/>
<path d="M123.089 147.744C121.717 147.744 120.605 148.856 120.605 150.228V162.204C118.995 162.948 117.358 163.642 115.698 164.286V150.228C115.698 148.856 116.81 147.744 118.181 147.744H123.089Z" fill="#E41753"/>
<path d="M115.696 154.803H125.571V159.883H115.696V154.803Z" fill="#ECC32E"/>
<path d="M115.696 154.803H120.604V159.883H115.696V154.803Z" fill="#E7A52E"/>
<path d="M60.2436 131.119H55.3358C53.9645 131.119 52.8525 130.007 52.8525 128.636V75.8078C52.8525 74.4366 53.9642 73.3246 55.3358 73.3246H60.2436C61.6148 73.3246 62.7268 74.4362 62.7268 75.8078V128.636C62.7268 130.007 61.6152 131.119 60.2436 131.119Z" fill="#F93D6E"/>
<path d="M60.2436 131.115H55.3361C53.9648 131.115 52.8525 130.002 52.8525 128.631V75.8049C52.8525 74.4336 53.9648 73.3213 55.3361 73.3213H60.2436C58.8723 73.3213 57.76 74.4336 57.76 75.8049V128.631C57.76 130.002 58.8723 131.115 60.2436 131.115Z" fill="#E41753"/>
<path d="M52.8525 80.3806H62.7268V85.4614H52.8525V80.3806Z" fill="#ECC32E"/>
<path d="M52.8525 118.572H62.7268V123.653H52.8525V118.572Z" fill="#ECC32E"/>
<path d="M52.8525 80.3806H57.76V85.4614H52.8525V80.3806Z" fill="#E7A52E"/>
<path d="M52.8525 118.572H57.76V123.653H52.8525V118.572Z" fill="#E7A52E"/>
<path d="M70.1186 131.119H65.2108C63.8395 131.119 62.7275 130.007 62.7275 128.636V75.8078C62.7275 74.4366 63.8392 73.3246 65.2108 73.3246H70.1186C71.4898 73.3246 72.6018 74.4362 72.6018 75.8078V128.636C72.6018 130.007 71.4898 131.119 70.1186 131.119Z" fill="#F93D6E"/>
<path d="M70.1186 131.115H65.2111C63.8398 131.115 62.7275 130.002 62.7275 128.631V75.8049C62.7275 74.4336 63.8398 73.3213 65.2111 73.3213H70.1186C68.7473 73.3213 67.635 74.4336 67.635 75.8049V128.631C67.635 130.002 68.7473 131.115 70.1186 131.115Z" fill="#E41753"/>
<path d="M62.7275 80.3806H72.6018V85.4614H62.7275V80.3806Z" fill="#ECC32E"/>
<path d="M62.7275 118.572H72.6018V123.653H62.7275V118.572Z" fill="#ECC32E"/>
<path d="M62.7275 80.3806H67.635V85.4614H62.7275V80.3806Z" fill="#E7A52E"/>
<path d="M62.7275 118.572H67.635V123.653H62.7275V118.572Z" fill="#E7A52E"/>
<path d="M79.9916 131.119H75.0838C73.7126 131.119 72.6006 130.007 72.6006 128.636V75.8078C72.6006 74.4366 73.7122 73.3246 75.0838 73.3246H79.9916C81.3629 73.3246 82.4749 74.4362 82.4749 75.8078V128.636C82.4745 130.007 81.3629 131.119 79.9916 131.119Z" fill="#F93D6E"/>
<path d="M79.9916 131.115H75.0842C73.7129 131.115 72.6006 130.002 72.6006 128.631V75.8049C72.6006 74.4336 73.7129 73.3213 75.0842 73.3213H79.9916C78.6203 73.3213 77.508 74.4336 77.508 75.8049V128.631C77.508 130.002 78.6203 131.115 79.9916 131.115Z" fill="#E41753"/>
<path d="M72.6006 80.3806H82.4749V85.4614H72.6006V80.3806Z" fill="#ECC32E"/>
<path d="M72.6006 118.572H82.4749V123.653H72.6006V118.572Z" fill="#ECC32E"/>
<path d="M72.6006 80.3806H77.508V85.4614H72.6006V80.3806Z" fill="#E7A52E"/>
<path d="M72.6006 118.572H77.508V123.653H72.6006V118.572Z" fill="#E7A52E"/>
<path d="M89.8661 131.119H84.9584C83.5871 131.119 82.4751 130.007 82.4751 128.636V75.8078C82.4751 74.4366 83.5867 73.3246 84.9584 73.3246H89.8661C91.2374 73.3246 92.3494 74.4362 92.3494 75.8078V128.636C92.3494 130.007 91.2377 131.119 89.8661 131.119Z" fill="#F93D6E"/>
<path d="M89.8661 131.115H84.9587C83.5874 131.115 82.4751 130.002 82.4751 128.631V75.8049C82.4751 74.4336 83.5874 73.3213 84.9587 73.3213H89.8661C88.4948 73.3213 87.3825 74.4336 87.3825 75.8049V128.631C87.3825 130.002 88.4948 131.115 89.8661 131.115Z" fill="#E41753"/>
<path d="M82.4751 80.3806H92.3494V85.4614H82.4751V80.3806Z" fill="#ECC32E"/>
<path d="M82.4751 118.572H92.3494V123.653H82.4751V118.572Z" fill="#ECC32E"/>
<path d="M82.4751 80.3806H87.3825V85.4614H82.4751V80.3806Z" fill="#E7A52E"/>
<path d="M82.4751 118.572H87.3825V123.653H82.4751V118.572Z" fill="#E7A52E"/>
<path d="M127.982 56.4514L123.239 57.7157C121.914 58.069 120.553 57.2811 120.2 55.956L106.592 4.91082C106.238 3.58568 107.026 2.22502 108.352 1.87174L113.094 0.607364C114.419 0.254082 115.78 1.04199 116.133 2.36713L129.741 53.4123C130.095 54.7378 129.307 56.0981 127.982 56.4514Z" fill="#ECC32E"/>
<path d="M127.981 56.4502L123.239 57.7143C121.914 58.0675 120.553 57.2793 120.2 55.9542L106.592 4.911C106.238 3.58586 107.027 2.22487 108.352 1.87159L113.094 0.607544C111.768 0.960825 110.98 2.32215 111.333 3.64696L124.941 54.6905C125.295 56.0153 126.656 56.8035 127.981 56.4502Z" fill="#E7A52E"/>
<path d="M107.746 9.28687L117.285 6.7393L118.595 11.6473L109.057 14.1949L107.746 9.28687Z" fill="#90D8F9"/>
<path d="M117.596 46.1759L127.135 43.6283L128.446 48.5363L118.907 51.0839L117.596 46.1759Z" fill="#90D8F9"/>
<path d="M107.746 9.2865L112.487 8.02039L113.797 12.9284L109.057 14.1945L107.746 9.2865Z" fill="#61A2F9"/>
<path d="M117.596 46.1752L122.337 44.9091L123.648 49.8171L118.907 51.0832L117.596 46.1752Z" fill="#61A2F9"/>
<path d="M76.1804 169.548C72.5413 169.173 68.972 168.569 65.4823 167.749L61.0265 151.031C60.6712 149.706 61.4614 148.345 62.7862 147.993L67.5277 146.728C68.8525 146.376 70.2138 147.163 70.5658 148.488L76.1804 169.548Z" fill="#ECC32E"/>
<path d="M70.848 168.828C69.0384 168.526 67.2521 168.164 65.4823 167.749L61.0265 151.031C60.6712 149.706 61.4614 148.345 62.7862 147.993L67.5277 146.728C66.2029 147.08 65.4126 148.441 65.7679 149.766L70.848 168.828Z" fill="#E7A52E"/>
<path d="M62.25 155.389L71.7886 152.841L73.0994 157.749L63.5608 160.297L62.25 155.389Z" fill="#90D8F9"/>
<path d="M62.2515 155.388L66.9921 154.122L68.3029 159.03L63.5623 160.296L62.2515 155.388Z" fill="#61A2F9"/>
<path d="M73.9797 57.798H52.3807C51.0094 57.798 49.8975 56.6864 49.8975 55.3148V2.48662C49.8975 1.11533 51.0091 0.00335693 52.3807 0.00335693H73.9797C75.351 0.00335693 76.463 1.115 76.463 2.48662V55.3148C76.4626 56.6861 75.351 57.798 73.9797 57.798Z" fill="#2F373B"/>
<path d="M57.2885 57.7934H52.3811C51.0098 57.7934 49.8975 56.6811 49.8975 55.3098V2.48359C49.8975 1.1123 51.0098 0 52.3811 0H57.2885C55.9172 0 54.8049 1.1123 54.8049 2.48359V55.3098C54.8049 56.6811 55.9172 57.7934 57.2885 57.7934Z" fill="#181E21"/>
<path d="M49.8975 7.05945H76.4626V12.1402H49.8975V7.05945Z" fill="#F6F1F1"/>
<path d="M49.8975 45.2505H76.4626V50.3312H49.8975V45.2505Z" fill="#F6F1F1"/>
<path d="M49.8975 7.05945H54.8049V12.1402H49.8975V7.05945Z" fill="#DFEAEF"/>
<path d="M49.8975 45.2505H54.8049V50.3312H49.8975V45.2505Z" fill="#DFEAEF"/>
<path d="M50.3708 131.119H28.7718C27.4005 131.119 26.2886 130.007 26.2886 128.636V75.8078C26.2886 74.4366 27.4002 73.3246 28.7718 73.3246H50.3708C51.7421 73.3246 52.8541 74.4362 52.8541 75.8078V128.636C52.8537 130.007 51.7421 131.119 50.3708 131.119Z" fill="#ECC32E"/>
<path d="M33.6796 131.115H28.7722C27.4009 131.115 26.2886 130.002 26.2886 128.631V75.8049C26.2886 74.4336 27.4009 73.3213 28.7722 73.3213H33.6796C32.3083 73.3213 31.196 74.4336 31.196 75.8049V128.631C31.196 130.002 32.3083 131.115 33.6796 131.115Z" fill="#E7A52E"/>
<path d="M26.2886 80.3806H52.8537V85.4614H26.2886V80.3806Z" fill="#F93D6E"/>
<path d="M26.2886 118.572H52.8537V123.653H26.2886V118.572Z" fill="#F93D6E"/>
<path d="M26.2886 80.3806H31.196V85.4614H26.2886V80.3806Z" fill="#E41753"/>
<path d="M26.2886 118.572H31.196V123.653H26.2886V118.572Z" fill="#E41753"/>
<path d="M106.32 57.7973H88.3986C87.2608 57.7973 86.3384 56.8749 86.3384 55.7371V11.9046C86.3384 10.7667 87.2608 9.84436 88.3986 9.84436H106.32C107.458 9.84436 108.38 10.7667 108.38 11.9046V55.7371C108.38 56.8749 107.458 57.7973 106.32 57.7973Z" fill="#90D8F9"/>
<path d="M92.4741 57.7934H88.4024C87.2645 57.7934 86.3418 56.8703 86.3418 55.7328V11.9017C86.3418 10.7638 87.2648 9.84106 88.4024 9.84106H92.4741C91.3362 9.84106 90.4135 10.7641 90.4135 11.9017V55.7324C90.4132 56.8703 91.3362 57.7934 92.4741 57.7934Z" fill="#61A2F9"/>
<path d="M86.3384 15.6985H108.38V19.914H86.3384V15.6985Z" fill="#2F373B"/>
<path d="M86.3384 47.3864H108.38V51.6018H86.3384V47.3864Z" fill="#2F373B"/>
<path d="M86.3384 15.6985H90.4101V19.914H86.3384V15.6985Z" fill="#181E21"/>
<path d="M86.3384 47.3864H90.4101V51.6018H86.3384V47.3864Z" fill="#181E21"/>
<path d="M112.331 131.119H94.4099C93.272 131.119 92.3496 130.197 92.3496 129.059V85.2263C92.3496 84.0884 93.272 83.166 94.4099 83.166H112.331C113.469 83.166 114.391 84.0884 114.391 85.2263V129.059C114.391 130.197 113.469 131.119 112.331 131.119Z" fill="#80E29D"/>
<path d="M98.4819 131.115H94.4102C93.2723 131.115 92.3496 130.192 92.3496 129.054V85.2232C92.3496 84.0853 93.2727 83.1626 94.4102 83.1626H98.4819C97.344 83.1626 96.4213 84.0856 96.4213 85.2232V129.054C96.4213 130.192 97.3443 131.115 98.4819 131.115Z" fill="#66B49D"/>
<path d="M92.3496 89.02H114.391V93.2355H92.3496V89.02Z" fill="#ECC32E"/>
<path d="M92.3496 120.708H114.391V124.923H92.3496V120.708Z" fill="#ECC32E"/>
<path d="M92.3496 89.02H96.4213V93.2355H92.3496V89.02Z" fill="#E7A52E"/>
<path d="M92.3496 120.708H96.4213V124.923H92.3496V120.708Z" fill="#E7A52E"/>
<path d="M60.9177 148.083V166.54C53.0353 164.216 45.6276 160.776 38.8774 156.407V148.083C38.8774 146.947 39.8005 146.024 40.9394 146.024H58.8591C59.998 146.024 60.9177 146.947 60.9177 148.083Z" fill="#80E29D"/>
<path d="M45.0101 146.024C43.8712 146.024 42.9481 146.947 42.9481 148.083V158.88C41.5669 158.093 40.2089 157.27 38.8774 156.407V148.083C38.8774 146.947 39.8005 146.024 40.9394 146.024H45.0101Z" fill="#66B49D"/>
<path d="M38.8774 151.881H60.919V156.096H38.8774V151.881Z" fill="#ECC32E"/>
<path d="M38.8774 151.881H42.9491V156.096H38.8774V151.881Z" fill="#E7A52E"/>
<path d="M146.268 131.119H131.004C129.719 131.119 128.677 130.077 128.677 128.792V79.2775C128.677 77.9922 129.719 76.95 131.004 76.95H146.268C147.553 76.95 148.595 77.9919 148.595 79.2775V128.792C148.595 130.077 147.553 131.119 146.268 131.119Z" fill="#90D8F9"/>
<path d="M135.604 131.115H131.005C129.719 131.115 128.677 130.072 128.677 128.787V79.2744C128.677 77.9891 129.719 76.9465 131.005 76.9465H135.604C134.319 76.9465 133.276 77.9891 133.276 79.2744V128.787C133.276 130.072 134.319 131.115 135.604 131.115Z" fill="#61A2F9"/>
<path d="M128.677 83.5635H148.595V88.3255H128.677V83.5635Z" fill="#F93D6E"/>
<path d="M128.677 119.359H148.595V124.121H128.677V119.359Z" fill="#F93D6E"/>
<path d="M128.677 83.5635H133.276V88.3255H128.677V83.5635Z" fill="#E41753"/>
<path d="M128.677 119.359H133.276V124.121H128.677V119.359Z" fill="#E41753"/>
<path d="M115.696 155.397V164.286C109.387 166.733 102.713 168.446 95.7773 169.323V155.397C95.7773 154.112 96.8199 153.07 98.1049 153.07H113.368C114.653 153.07 115.696 154.112 115.696 155.397Z" fill="#D9723E"/>
<path d="M102.704 153.07C101.419 153.07 100.376 154.112 100.376 155.397V168.609C98.8586 168.891 97.3246 169.127 95.7773 169.323V155.397C95.7773 154.112 96.8199 153.07 98.1049 153.07H102.704Z" fill="#BD5423"/>
<path d="M95.7773 159.686H115.696V164.448H95.7773V159.686Z" fill="#90D8F9"/>
<path d="M95.7773 159.686H100.377V164.448H95.7773V159.686Z" fill="#61A2F9"/>
</svg>
