<svg width="74" height="74" viewBox="0 0 74 74" fill="none" xmlns="http://www.w3.org/2000/svg">
<path d="M16.1231 59.7749C15.7497 59.4216 15.3727 59.0659 14.9957 58.7067C20.6115 53.1976 26.3304 46.4295 26.3304 37.2488C26.3304 28.0682 20.6115 21.3001 14.9957 15.7898C15.3727 15.4306 15.7497 15.0749 16.1231 14.7216C20.9648 10.1479 25.1449 6.19777 25.1449 1.68332V0.497803H22.7739V1.68332C22.7739 2.46458 22.5723 3.25413 22.2238 4.05436H4.35566C4.00711 3.25413 3.80558 2.46458 3.80558 1.68332V0.497803H1.43454V1.68332C1.43454 6.19777 5.61467 10.1479 10.4563 14.7228C10.8298 15.0761 11.2068 15.4318 11.5838 15.791C5.96796 21.3001 0.249023 28.0682 0.249023 37.2488C0.249023 46.4295 5.96796 53.1976 11.5838 58.7079C11.2068 59.0671 10.8298 59.4228 10.4563 59.776C5.61467 64.3498 1.43454 68.2999 1.43454 72.8144V73.9999H3.80558V72.8144C3.80558 72.0331 4.00711 71.2436 4.35566 70.4433H22.225C22.5723 71.2436 22.7739 72.0331 22.7739 72.8144V73.9999H25.1449V72.8144C25.1449 68.2999 20.9648 64.3498 16.1231 59.7749ZM5.77353 6.42539H20.8059C20.2274 7.19953 19.5409 7.98909 18.781 8.79642H7.7984C7.03848 7.98909 6.35088 7.19953 5.77353 6.42539ZM10.1599 11.1675H16.4183C15.7959 11.7673 15.1533 12.3755 14.4942 12.9991C14.0982 13.3737 13.6952 13.7543 13.2897 14.1396C12.8831 13.7543 12.4812 13.3737 12.0852 12.9991C11.4261 12.3755 10.7823 11.7673 10.1599 11.1675ZM13.2897 17.4353C14.7242 18.8389 16.1421 20.2959 17.4521 21.8371H9.12736C10.4374 20.2959 11.8552 18.8389 13.2897 17.4353ZM4.45761 28.9502H15.6608V26.5792H5.70715C6.21573 25.7197 6.76818 24.8863 7.36213 24.0754V24.2082H19.2173V24.0754C19.8112 24.8851 20.3637 25.7197 20.8723 26.5792H18.0318V28.9502H22.123C22.4704 29.7173 22.7632 30.5115 23.0204 31.3213H3.56017C3.81743 30.5115 4.10907 29.7173 4.45761 28.9502ZM2.94845 33.6923H23.6322C23.7744 34.4605 23.8562 35.2548 23.906 36.0633H2.67459C2.7232 35.2548 2.805 34.4605 2.94845 33.6923ZM3.55899 43.1764H7.36213V40.8054H2.94726C2.805 40.0372 2.7232 39.2429 2.67341 38.4344H23.9048C23.8562 39.2429 23.7744 40.0372 23.631 40.8054H9.73316V43.1764H23.0193C22.762 43.9861 22.4704 44.7804 22.1218 45.5475H4.45642C4.10907 44.7804 3.81625 43.9861 3.55899 43.1764ZM7.36213 50.4223C6.76818 49.6114 6.21573 48.778 5.70715 47.9185H20.8723C20.3649 48.778 19.8112 49.6114 19.2173 50.4223V50.2895H7.36213V50.4223ZM9.12736 52.6606H17.4521C16.1421 54.2017 14.7242 55.6587 13.2897 57.0624C11.8552 55.6587 10.4374 54.2017 9.12736 52.6606ZM12.0852 61.4986C12.4812 61.124 12.8843 60.7434 13.2897 60.3581C13.6963 60.7446 14.0982 61.1252 14.4942 61.4986C15.1533 62.1222 15.7971 62.7304 16.4183 63.3302H10.1599C10.7823 62.7304 11.4261 62.1222 12.0852 61.4986ZM5.77353 68.0723C6.35207 67.2982 7.03848 66.5086 7.7984 65.7013H18.7822C19.5421 66.5086 20.2285 67.2982 20.8071 68.0723H5.77353Z" fill="white"/>
<path d="M67.8232 64.5159H65.911C68.7064 59.4549 70.1942 53.736 70.1942 47.9186C70.1942 38.3479 66.186 29.2183 59.1831 22.7193L62.4018 19.5006L60.0296 17.1284L64.2821 12.8783L65.4723 14.0674L70.6815 8.81195L61.8932 0L56.6841 5.28622L57.8601 6.46226L53.6041 10.704L51.2414 8.3413L34.6441 24.9385L32.2731 22.5675L27.0402 27.8004L42.9427 43.7029L48.1756 38.47L45.8046 36.099L52.4553 29.4483C55.8755 32.5365 58.396 36.5353 59.6894 40.9241C57.5649 41.3912 55.968 43.2832 55.968 45.5476C55.968 48.1237 58.0356 50.2162 60.5963 50.2778C60.5026 51.2689 60.3461 52.2529 60.1351 53.2238C59.208 52.8658 58.2051 52.6607 57.1535 52.6607H39.3708C36.1023 52.6607 33.4432 55.3198 33.4432 58.5883V59.7738H48.9498C48.894 60.1626 48.8549 60.5562 48.8549 60.9593V64.5159H32.2577C28.9892 64.5159 26.3301 67.175 26.3301 70.4435V74H73.7508V70.4435C73.7508 67.175 71.0917 64.5159 67.8232 64.5159ZM61.9027 3.36687L67.3359 8.81669L65.4628 10.7076L60.0249 5.27318L61.9027 3.36687ZM59.5376 8.13739L62.6045 11.202L58.3533 15.4509L55.2816 12.3792L59.5376 8.13739ZM42.9427 40.3491L30.3928 27.7992L32.2731 25.919L44.823 38.4689L42.9427 40.3491ZM44.1283 34.4215L36.3204 26.6137L51.2414 11.6928L59.0492 19.5006L44.1283 34.4215ZM54.134 27.7696L57.5068 24.3968C64.0663 30.4512 67.8232 38.9774 67.8232 47.9186C67.8232 52.1225 66.9957 56.2718 65.4095 60.1223C65.1783 57.8248 64.0023 55.8059 62.2821 54.4485C62.6674 52.8836 62.914 51.2796 63.0171 49.6649C64.4622 48.8516 65.4522 47.3211 65.4522 45.5476C65.4522 43.4516 64.077 41.6899 62.1884 41.0651C60.8642 35.9816 58.0403 31.3285 54.134 27.7696ZM58.3391 45.5476C58.3391 44.24 59.4025 43.1765 60.7101 43.1765C62.0177 43.1765 63.0811 44.24 63.0811 45.5476C63.0811 46.8552 62.0177 47.9186 60.7101 47.9186C59.4025 47.9186 58.3391 46.8552 58.3391 45.5476ZM36.0169 57.4028C36.5066 56.0228 37.8249 55.0317 39.3708 55.0317H51.3564C50.6605 55.7122 50.0902 56.5148 49.667 57.4028H36.0169ZM71.3797 71.629H28.7011V70.4435C28.7011 68.4826 30.2968 66.8869 32.2577 66.8869H53.597V64.5159H51.2259V60.9593C51.2259 57.6908 53.8851 55.0317 57.1535 55.0317C60.422 55.0317 63.0811 57.6908 63.0811 60.9593V64.5159H55.968V66.8869H67.8232C69.784 66.8869 71.3797 68.4826 71.3797 70.4435V71.629Z" fill="white"/>
</svg>
