<svg id="Capa_1" enable-background="new 0 0 511.328 511.328" height="512" viewBox="0 0 511.328 511.328" width="512" xmlns="http://www.w3.org/2000/svg"><g><path d="m393.964 360.266c-4.143 0-7.5 3.357-7.5 7.5v109.613c0 10.448-8.501 18.949-18.949 18.949h-319.544c-10.449 0-18.95-8.501-18.95-18.949v-306.834c0-4.143-3.358-7.5-7.5-7.5s-7.5 3.357-7.5 7.5v306.834c0 18.72 15.23 33.949 33.95 33.949h319.544c18.72 0 33.949-15.229 33.949-33.949v-109.613c0-4.143-3.357-7.5-7.5-7.5z"/><path d="m21.521 146.083c4.142 0 7.5-3.357 7.5-7.5v-64.357c0-10.449 8.501-18.95 18.95-18.95h51.449c4.142 0 7.5-3.357 7.5-7.5s-3.358-7.5-7.5-7.5h-51.449c-18.72 0-33.95 15.23-33.95 33.95v64.357c0 4.143 3.358 7.5 7.5 7.5z"/><path d="m316.066 55.275h51.449c10.448 0 18.949 8.501 18.949 18.95v47.646c0 4.143 3.357 7.5 7.5 7.5s7.5-3.357 7.5-7.5v-47.645c0-18.72-15.229-33.95-33.949-33.95h-51.449c-4.143 0-7.5 3.357-7.5 7.5s3.357 7.499 7.5 7.499z"/><path d="m122.512 473.829c0 4.143 3.358 7.5 7.5 7.5h233.952c4.143 0 7.5-3.357 7.5-7.5v-56.741c0-4.143-3.357-7.5-7.5-7.5s-7.5 3.357-7.5 7.5v49.241h-226.452c-4.142 0-7.5 3.358-7.5 7.5z"/><path d="m101.005 70.275h-49.483c-4.142 0-7.5 3.357-7.5 7.5v396.054c0 4.143 3.358 7.5 7.5 7.5h46.528c4.142 0 7.5-3.357 7.5-7.5s-3.358-7.5-7.5-7.5h-39.028v-381.054h41.983c4.142 0 7.5-3.357 7.5-7.5s-3.358-7.5-7.5-7.5z"/><path d="m314.481 85.275h41.983v104.145c0 4.143 3.357 7.5 7.5 7.5s7.5-3.357 7.5-7.5v-111.645c0-4.143-3.357-7.5-7.5-7.5h-49.483c-4.143 0-7.5 3.357-7.5 7.5s3.357 7.5 7.5 7.5z"/><path d="m146.335 90.079h122.817c13.468 0 24.425-10.957 24.425-24.426v-17.39c0-13.469-10.957-24.426-24.425-24.426h-7.149l-2.21-8.685c-2.272-8.922-10.287-15.152-19.493-15.152h-65.115c-9.206 0-17.221 6.23-19.492 15.151l-2.211 8.686h-7.148c-13.468 0-24.426 10.957-24.426 24.426v17.391c.001 13.468 10.958 24.425 24.427 24.425zm-9.426-41.816c0-5.197 4.229-9.426 9.426-9.426h12.979c3.43 0 6.422-2.326 7.268-5.649l3.649-14.335v-.001c.578-2.268 2.615-3.852 4.956-3.852h65.113c2.34 0 4.378 1.584 4.956 3.853l3.649 14.335c.846 3.323 3.838 5.649 7.268 5.649h12.979c5.197 0 9.425 4.229 9.425 9.426v17.391c0 5.197-4.228 9.426-9.425 9.426h-122.817c-5.197 0-9.426-4.229-9.426-9.426z"/><path d="m189.757 55.275h35.972c4.142 0 7.5-3.357 7.5-7.5s-3.358-7.5-7.5-7.5h-35.972c-4.142 0-7.5 3.357-7.5 7.5s3.358 7.5 7.5 7.5z"/><path d="m325.392 160.055h-235.298c-4.142 0-7.5 3.357-7.5 7.5s3.358 7.5 7.5 7.5h235.298c4.143 0 7.5-3.357 7.5-7.5s-3.357-7.5-7.5-7.5z"/><path d="m325.392 204.806h-187.954c-4.142 0-7.5 3.357-7.5 7.5s3.358 7.5 7.5 7.5h187.955c4.143 0 7.5-3.357 7.5-7.5s-3.358-7.5-7.501-7.5z"/><path d="m332.892 257.057c0-4.143-3.357-7.5-7.5-7.5h-235.298c-4.142 0-7.5 3.357-7.5 7.5s3.358 7.5 7.5 7.5h235.298c4.143 0 7.5-3.358 7.5-7.5z"/><path d="m90.094 219.806h19.077c4.142 0 7.5-3.357 7.5-7.5s-3.358-7.5-7.5-7.5h-19.077c-4.142 0-7.5 3.357-7.5 7.5s3.358 7.5 7.5 7.5z"/><path d="m288.712 407.014h-74.415l-.209-1.548c-.892-6.595-5.421-11.825-11.82-13.651-6.399-1.824-13.005.229-17.242 5.359l-17.682 21.413c-.18.218-.658.797-1.619.415s-.91-1.132-.891-1.414l2.718-40.581c.469-6.995-3.371-13.349-9.782-16.186-6.411-2.835-13.695-1.405-18.557 3.644l-51.726 53.728c-2.873 2.984-2.783 7.732.201 10.605 2.984 2.872 7.732 2.781 10.604-.201l51.726-53.729c.179-.186.723-.755 1.68-.33.955.423.903 1.207.885 1.466l-2.718 40.582c-.485 7.249 3.563 13.669 10.314 16.354 2.042.812 4.137 1.206 6.196 1.206 4.751 0 9.306-2.1 12.533-6.008l17.682-21.413c.154-.186.621-.754 1.561-.485.939.269 1.038.997 1.07 1.236l.318 2.352c.939 6.947 6.935 12.187 13.946 12.187h75.225c4.143 0 7.5-3.357 7.5-7.5s-3.356-7.501-7.498-7.501z"/><path d="m496.312 149.836c-1.419-3.686-4.188-6.599-7.798-8.201l-15.649-6.95 15.274-34.391c2.535-5.708 2.696-12.062.452-17.892-2.243-5.83-6.622-10.437-12.331-12.972l-7.35-3.264c-11.782-5.234-25.628.095-30.862 11.879l-128.308 288.896c-.843 1.896-1.216 3.98-1.086 6.05l.438 36.259c.056 4.711 2.766 8.826 7.072 10.739 1.58.702 3.235 1.045 4.873 1.045 2.826 0 5.6-1.023 7.837-2.997l27.197-23.988c1.624-1.293 2.92-2.968 3.758-4.859l34.703-78.136c1.682-3.785-.024-8.217-3.811-9.898-3.783-1.68-8.216.025-9.898 3.811l-31.658 71.281-22.674-10.07 91.976-207.089 22.674 10.07-47.338 106.585c-1.682 3.785.024 8.217 3.811 9.898 3.784 1.682 8.217-.024 9.898-3.811l59.264-133.438 15.453 6.863-34.354 77.353c-1.682 3.785.024 8.217 3.811 9.898.989.439 2.022.647 3.04.647 2.874 0 5.616-1.662 6.858-4.458l34.44-77.547c1.605-3.608 1.707-7.627.288-11.313zm-44.555-65.702c1.876-4.225 6.842-6.132 11.065-4.258l7.35 3.264c2.046.909 3.616 2.561 4.421 4.65.804 2.09.746 4.368-.163 6.415l-15.274 34.391-22.673-10.07zm-127.748 318.193-.253-20.953 15.968 7.092zm123.221-246.878-22.674-10.07 5.838-13.145 22.674 10.07z"/></g></svg>