<svg id="Capa_1" enable-background="new 0 0 511.016 511.016" height="512" viewBox="0 0 511.016 511.016" width="512" xmlns="http://www.w3.org/2000/svg"><g><path d="m485.408 4.409-481 481c-9.422 9.422-2.738 25.607 10.606 25.607h481c8.284 0 15-6.716 15-15v-481c.001-13.325-16.17-20.042-25.606-10.607zm-4.393 476.607h-429.787l76.287-76.287 20.894 20.894c2.929 2.929 6.768 4.393 10.606 4.393 13.244 0 20.083-16.13 10.606-25.607l-20.894-20.893 42.787-42.787 20.894 20.894c2.929 2.929 6.768 4.393 10.606 4.393 13.244 0 20.083-16.13 10.606-25.607l-20.893-20.893 42.787-42.787 20.894 20.894c2.929 2.929 6.768 4.393 10.606 4.393 13.244 0 20.083-16.13 10.606-25.607l-20.893-20.893 42.787-42.787 20.894 20.894c2.929 2.929 6.768 4.393 10.606 4.393 13.244 0 20.083-16.13 10.606-25.607l-20.893-20.893 42.787-42.787 20.894 20.894c2.929 2.929 6.768 4.393 10.606 4.393 13.244 0 20.083-16.13 10.606-25.607l-20.893-20.893 76.287-76.287v429.787z"/><path d="m388.408 252.409-136 136c-9.422 9.422-2.738 25.607 10.606 25.607h136c8.284 0 15-6.716 15-15v-136c.001-13.325-16.17-20.042-25.606-10.607zm-4.393 131.607h-84.787l84.787-84.787z"/></g></svg>