<svg width="170" height="170" viewBox="0 0 170 170" fill="none" xmlns="http://www.w3.org/2000/svg">
<path d="M85.0003 170C131.816 170 170 131.816 170 84.9997C170 38.1836 131.816 0 85.0003 0C38.1836 0 0 38.1836 0 84.9997C0 131.816 38.1836 170 85.0003 170Z" fill="#FFCA4F"/>
<path d="M58.1839 48.3669H132.391L149.231 122.698L143.064 122.729L142.917 148.972L149.273 149.006L149.232 153.391H48.9193C39.4255 152.654 40.2718 135.779 39.7642 131.262L48.2157 55.7018C48.2489 52.3437 51.7419 48.3679 58.1849 48.3679L58.1839 48.3669Z" fill="#20D0C2"/>
<path d="M58.1833 48.3671H65.2907L58.8214 153.39H48.9166C37.2829 152.071 36.8396 133.568 40.6168 123.624L48.213 55.7C48.2462 52.3425 51.7402 48.3661 58.1823 48.3661L58.1833 48.3671Z" fill="#1A91A1"/>
<path d="M50.2099 122.689H147.306C142.9 131.691 143.015 140.568 147.306 149.328H50.2099C39.7938 149.328 39.7954 122.689 50.2099 122.689Z" fill="white"/>
<path d="M43.149 130.013H144.707C144.648 130.279 144.593 130.546 144.543 130.812H42.9551C43.0152 130.542 43.0786 130.275 43.149 130.013ZM144.233 132.815C144.201 133.082 144.174 133.348 144.15 133.615H42.5115C42.5358 133.347 42.568 133.08 42.6022 132.815H144.233ZM144.048 135.618C144.045 135.885 144.045 136.151 144.048 136.418H42.4036C42.3993 136.151 42.3993 135.885 42.4036 135.618H144.048ZM144.152 138.419C144.176 138.686 144.203 138.953 144.235 139.219H42.6048C42.57 138.954 42.5394 138.687 42.5135 138.419H144.152ZM144.545 141.221C144.596 141.488 144.651 141.754 144.71 142.021H43.1543C43.084 141.758 43.0192 141.491 42.9585 141.221H144.545H144.545ZM145.226 144.024C145.304 144.291 145.387 144.557 145.473 144.824H44.1803C44.0558 144.565 43.9366 144.298 43.8251 144.024H145.225H145.226ZM146.196 146.826C146.302 147.092 146.412 147.359 146.526 147.626H46.1383C45.884 147.381 45.6436 147.114 45.4155 146.826H146.195H146.196Z" fill="#ECF0F1"/>
<path d="M79.7456 136.338H94.9188V169.998L87.2695 159.018L79.7466 169.998V136.338H79.7456Z" fill="#FF5B61"/>
<path d="M32.855 95.4661L135.72 58.6698C147.242 57.7145 150.692 81.1543 143.136 83.3663L42.6356 121.086C36.9277 123.236 31.3469 114.058 30.8495 105.06C30.5849 100.28 31.8851 100.425 37.3291 98.2921L32.8553 95.4668V95.4661H32.855Z" fill="white"/>
<path d="M146.37 79.8613C145.715 81.6344 144.646 82.9243 143.136 83.3669L42.6364 121.086C40.8886 121.744 39.1528 121.339 37.5713 120.204C40.4228 120.489 41.9817 120.11 44.6944 117.552L146.37 79.8613Z" fill="#ECF0F1"/>
<path d="M100.364 71.3279C108.003 72.4286 113.461 90.5671 109.643 95.9374L95.7541 101.15C98.2735 92.643 92.7834 78.4652 85.1523 76.7739L100.364 71.3279Z" fill="#FFBA1B"/>
<path d="M124.969 108.034L109.642 95.9375L95.7529 101.15L107.351 114.629L112.709 106.621L124.969 108.034Z" fill="#F5A209"/>
<path d="M36.6585 98.5717L37.3298 98.2911C41.5304 99.1421 48.8965 114.195 40.8248 117.537C35.083 119.913 32.4091 107.459 32.6183 103.33C35.0797 101.567 37.7366 109.004 36.8859 109.173L35.1816 109.51C35.1816 109.51 35.2337 112.766 36.8859 112.99L43.4787 110.857C43.4787 110.857 42.9432 101.259 36.6595 98.5717H36.6585Z" fill="#ECF0F1"/>
<path d="M60.3693 128.274H138.572H143.031H145.145C145.671 126.425 146.387 124.57 147.298 122.707C147.301 122.702 147.303 122.695 147.307 122.689H140.366H60.7127H50.2085C40.571 122.689 39.8508 145.502 48.0503 148.905C45.2739 141.049 47.4922 128.274 54.7049 128.274H60.3683H60.3693Z" fill="#ECF0F1"/>
<path d="M92.7122 45.2139L93.5472 59.8053C88.8025 67.8475 73.6572 73.8167 58.7454 73.665C44.5348 73.5212 30.5154 67.6253 26.6609 60.1998L26.5825 45.9038L58.3327 54.6688L92.7122 45.2149V45.2139Z" fill="#666666"/>
<path d="M6.99561 40.1369L58.3326 22.7936L109.67 40.1369L58.3326 57.4796L6.99561 40.1369Z" fill="#807D7D"/>
<path d="M25.2433 75.6407L22.8928 90.692C22.8553 90.9367 23.6817 91.2694 24.0765 90.779C24.5948 91.3999 25.2818 91.1456 25.4873 90.7163C25.7476 91.1422 26.3609 91.3773 26.8058 90.7415C27.2003 91.2319 28.0818 90.8906 28.0174 90.4792L25.6816 75.6268C25.6225 75.4057 25.2748 75.4432 25.2443 75.6398L25.2433 75.6407Z" fill="#FF5B61"/>
<path d="M58.6811 35.744C58.9912 35.6517 59.3186 35.8277 59.4109 36.1385C59.5032 36.4486 59.3272 36.776 59.0164 36.8683L25.9983 46.7957V75.5881C25.9983 75.9122 25.7353 76.1751 25.4113 76.1751C25.0872 76.1751 24.8242 75.9122 24.8242 75.5881V46.3594C24.8242 46.1067 24.9889 45.8733 25.2432 45.7976L58.6801 35.7437H58.6811V35.744Z" fill="white"/>
<path d="M25.4555 77.555C26.7385 77.555 27.7854 76.5081 27.7854 75.2244C27.7854 73.9408 26.7385 72.8949 25.4555 72.8949C24.1719 72.8949 23.126 73.9418 23.126 75.2244C23.126 76.5084 24.1729 77.555 25.4555 77.555Z" fill="white"/>
<path d="M27.3454 74.6314C27.3454 75.6069 26.7252 76.436 25.8589 76.7484C25.6202 76.8338 25.3642 76.8809 25.0959 76.8809C25.081 76.8809 25.0664 76.8809 25.0524 76.8809C24.2851 76.866 23.6121 76.4672 23.2173 75.8699C23.4517 76.685 24.1194 77.3172 24.9555 77.5011C25.1165 77.536 25.2845 77.5553 25.4572 77.5553C25.6348 77.5553 25.8091 77.5353 25.9761 77.4968C27.0134 77.2608 27.7867 76.3341 27.7867 75.2247C27.7867 74.5594 27.5081 73.96 27.0622 73.535C27.2425 73.8591 27.3461 74.2326 27.3461 74.6307L27.3454 74.6314Z" fill="#ECF0F1"/>
</svg>
