<?xml version="1.0" encoding="iso-8859-1"?>
<!-- Generator: Adobe Illustrator 16.0.0, SVG Export Plug-In . SVG Version: 6.00 Build 0)  -->
<!DOCTYPE svg PUBLIC "-//W3C//DTD SVG 1.1//EN" "http://www.w3.org/Graphics/SVG/1.1/DTD/svg11.dtd">
<svg version="1.1" id="Capa_1" xmlns="http://www.w3.org/2000/svg" xmlns:xlink="http://www.w3.org/1999/xlink" x="0px" y="0px"
	 width="408.463px" height="408.463px" viewBox="0 0 408.463 408.463" style="enable-background:new 0 0 408.463 408.463;"
	 xml:space="preserve">
<g>
	<path d="M407.588,174.392C398.408,76.472,319.46,5.48,222.764,4.868C130.964,3.644,28.76,59.948,4.28,152.972
		c-25.092,96.084,64.26,201.96,160.344,195.84c1.836,15.3,1.224,29.987-1.224,45.899c-1.224,4.284,2.448,10.404,8.568,8.568
		c16.524-5.508,32.436-15.912,44.064-28.152c6.12-6.731,14.076-22.644,9.792-31.823c49.572,1.224,101.592-12.853,138.924-44.064
		C400.856,268.64,411.872,219.068,407.588,174.392z M224.6,281.492c-6.119-0.612-12.239-0.612-18.972,0
		c0-3.672-0.612-7.956-0.612-11.628c0-1.836,0-4.284-0.611-6.732c7.344,0.612,14.688,0.612,22.032,1.225
		C225.212,269.864,224.6,275.984,224.6,281.492z M234.393,192.14c-4.284,0-7.345,3.06-7.345,7.344
		c0,7.344-1.836,14.688-0.611,22.032c-8.568,0-17.137,0-26.316,0c-0.612-7.345-2.448-15.301-3.06-22.645
		c-1.836-13.464,2.447-16.524,13.464-22.032c16.523-7.956,20.195-22.644,15.3-39.168c-3.672-13.464-18.36-19.584-30.6-13.464
		c-13.464,6.732-23.869,20.196-25.092,35.496c-4.284-0.612-9.18,0.612-12.852,1.224c-6.12,0.612-12.852,1.836-18.972,3.06
		c-13.464-62.424,66.096-108.936,113.22-66.096C283.353,126.044,287.024,188.468,234.393,192.14z"/>
</g>
<g>
</g>
<g>
</g>
<g>
</g>
<g>
</g>
<g>
</g>
<g>
</g>
<g>
</g>
<g>
</g>
<g>
</g>
<g>
</g>
<g>
</g>
<g>
</g>
<g>
</g>
<g>
</g>
<g>
</g>
</svg>
