<svg width="74" height="74" viewBox="0 0 74 74" fill="none" xmlns="http://www.w3.org/2000/svg">
<g clip-path="url(#clip0)">
<path d="M74 27.8019V22.6609C74 21.2721 72.8697 20.1418 71.4809 20.1418C70.5911 20.1418 69.755 19.7957 69.126 19.1679C68.4971 18.5378 68.1504 17.7011 68.1504 16.8119V7.75952C68.1504 6.34978 67.0038 5.20312 65.594 5.20312H62.5109C61.1012 5.20312 59.9545 6.35034 59.9545 7.75952V13.0581C59.9545 16.345 57.3332 19.0629 54.1117 19.1171C52.51 19.1419 50.9879 18.5384 49.843 17.4121C48.6974 16.2852 48.0668 14.78 48.0668 13.1738V7.75952C48.0668 6.34978 46.9196 5.20312 45.5098 5.20312H42.4273C41.0175 5.20312 39.8703 6.35034 39.8703 7.75952V11.0262C39.8703 11.6252 40.3558 12.1101 40.9543 12.1101C41.5533 12.1101 42.0383 11.6252 42.0383 11.0262V7.75952C42.0383 7.54555 42.2127 7.37109 42.4273 7.37109H45.5098C45.7244 7.37109 45.8988 7.54555 45.8988 7.75952V13.1738C45.8988 15.366 46.7598 17.42 48.3226 18.9573C49.8853 20.4946 51.9539 21.3167 54.1478 21.285C58.5453 21.2105 62.1225 17.5199 62.1225 13.0581V7.75952C62.1225 7.54555 62.2969 7.37109 62.5109 7.37109H65.594C65.808 7.37109 65.9825 7.54555 65.9825 7.75952V16.8119C65.9825 18.2793 66.5538 19.6602 67.5932 20.7007C68.6326 21.7384 70.013 22.3098 71.4809 22.3098C71.6745 22.3098 71.832 22.4673 71.832 22.6609V27.1397L54.0101 35.6902L36.1893 27.1403V22.6609C36.1893 22.5412 36.2452 22.4599 36.2943 22.4108C36.3321 22.373 36.414 22.3098 36.5404 22.3098C39.5722 22.3098 42.0383 19.8437 42.0383 16.8119V15.3621C42.0383 14.7636 41.5533 14.2781 40.9543 14.2781C40.3558 14.2781 39.8703 14.7636 39.8703 15.3621V16.8119C39.8703 18.6479 38.3764 20.1418 36.5404 20.1418C35.8652 20.1418 35.2318 20.4043 34.7592 20.8797C34.2833 21.3556 34.0213 21.9885 34.0213 22.6609V27.785C34.0207 27.8093 34.0207 27.8336 34.0213 27.8578V45.8695L28.4467 49.2106C27.6614 48.7601 26.7626 48.5173 25.8508 48.5173H19.383V29.7915H25.8508C28.7239 29.7915 31.0612 27.4542 31.0612 24.581C31.0612 21.7079 28.7239 19.3706 25.8508 19.3706H24.7154V18.1867C24.7154 15.8409 22.8066 13.9326 20.4608 13.9326H19.383V11.8081C19.383 10.5728 18.3781 9.56786 17.1428 9.56786H13.9185C12.6832 9.56786 11.6782 10.5728 11.6782 11.8081V13.9326H10.6005C8.25465 13.9326 6.34583 15.8409 6.34583 18.1867V19.3706H5.21046C4.73453 19.3706 4.26311 19.4349 3.80862 19.5614C3.23219 19.7223 2.89458 20.3202 3.05548 20.8972C3.21638 21.4736 3.81371 21.8101 4.39127 21.6498C4.65605 21.5758 4.93156 21.5385 5.21046 21.5385H25.8508C27.5287 21.5385 28.8933 22.9031 28.8933 24.581C28.8933 26.2584 27.5287 27.623 25.8508 27.623H5.21046C3.53255 27.623 2.16797 26.2584 2.16797 24.581C2.16797 24.4088 2.18265 24.2355 2.21088 24.0673C2.31081 23.4767 1.91335 22.9172 1.32336 22.8173C0.733383 22.7168 0.173325 23.1148 0.0733947 23.7054C0.0248413 23.9933 0 24.288 0 24.581C0 27.4542 2.33734 29.7915 5.21046 29.7915H11.6782V48.5173H5.21046C2.33734 48.5173 0 50.8547 0 53.7278C0 55.1178 0.541428 56.4265 1.52661 57.4133C2.5118 58.3968 3.82048 58.9383 5.21046 58.9383H6.34639V60.1216C6.34639 62.468 8.25465 64.3768 10.5999 64.3768H11.6782V66.5013C11.6782 67.7366 12.6832 68.7415 13.9185 68.7415H17.1428C18.3781 68.7415 19.383 67.7366 19.383 66.5013V64.3768H19.4259C19.65 64.671 19.8968 64.9504 20.1661 65.213C21.6221 66.6351 23.5106 67.3589 25.4352 67.3589H64.5157C66.7977 67.3589 68.6546 65.502 68.6546 63.2194V56.7991H69.2333C71.862 56.7991 74 54.6605 74 52.0324V27.8392C74 27.8268 74 27.8144 74 27.8019ZM13.8462 11.8081C13.8462 11.7686 13.8784 11.7358 13.9185 11.7358H17.1428C17.1828 11.7358 17.215 11.7686 17.215 11.8081V13.9326H13.8462V11.8081ZM8.51379 19.3706V18.1867C8.51379 17.0361 9.44986 16.1006 10.6005 16.1006H12.7396H12.7622H12.7842H18.2764H18.299H18.3216H20.4608C21.6114 16.1006 22.5474 17.0361 22.5474 18.1867V19.3706H8.51379ZM45.4585 43.4215C45.9429 43.4215 46.3787 43.7275 46.5441 44.1825C47.8026 47.6547 51.1296 49.9875 54.8219 49.9875C58.5933 49.9875 61.9435 47.5886 63.1579 44.0182C63.2793 43.6614 63.6146 43.4215 63.9918 43.4215H64.6653C65.6697 43.4215 66.4866 44.2384 66.4866 45.2428V58.8987H51.4791L47.9234 53.804C47.5813 53.3134 46.9049 53.1931 46.4143 53.5358C45.9237 53.878 45.8034 54.5538 46.1456 55.045L48.8352 58.8987H46.2342L39.5383 49.3027L41.3726 48.2029L43.6654 51.4893C43.8765 51.7913 44.213 51.9533 44.5557 51.9533C44.7697 51.9533 44.9859 51.8901 45.1745 51.758C45.6657 51.4153 45.7859 50.7395 45.4438 50.2489L43.1364 46.9416C43.7495 46.2506 44.1057 45.3461 44.1057 44.4021V43.4215H45.4585ZM41.0644 58.8987L35.8929 51.4876L37.6741 50.42L43.5903 58.8987H41.0644ZM35.8189 58.8987L32.1943 53.7047L34.0286 52.6054L38.4205 58.8993H35.8189V58.8987ZM25.7796 53.3365C25.835 53.437 25.8982 53.5341 25.9688 53.6262C26.6909 54.5656 27.785 55.0687 28.8989 55.0687C29.3737 55.0687 29.8525 54.9772 30.3075 54.7886L33.1756 58.8987H20.1367C20.4032 57.375 21.3234 56.0076 22.6705 55.2008L25.7796 53.3365ZM41.9378 43.653V44.4027C41.9378 44.9724 41.6374 45.5081 41.153 45.8068C41.1338 45.8181 41.1146 45.8294 41.096 45.8418L37.4567 48.0228C37.4381 48.0335 37.4195 48.0448 37.4008 48.0566L33.7938 50.2184C33.787 50.2224 33.7797 50.2269 33.7729 50.2314L29.6808 52.6839C29.0163 53.0825 28.1599 52.9193 27.6873 52.3051C27.6817 52.2977 27.6642 52.2746 27.6715 52.2368C27.6777 52.2034 27.6975 52.1882 27.7077 52.1814L28.9492 51.4373C28.9633 51.4294 28.978 51.4204 28.9921 51.4113L41.8892 43.6806C41.9056 43.671 41.9214 43.662 41.9378 43.653ZM13.8462 29.7915H17.215V48.5173H13.8462V29.7915ZM8.51436 60.1222V58.9383H14.6383C15.2368 58.9383 15.7223 58.4533 15.7223 57.8543C15.7223 57.2558 15.2368 56.7703 14.6383 56.7703H5.21046C4.39861 56.7703 3.63417 56.4541 3.05943 55.8805C2.4847 55.3041 2.16797 54.5397 2.16797 53.7278C2.16797 52.0504 3.53255 50.6853 5.21046 50.6853H25.8508C25.8948 50.6853 25.9383 50.6864 25.9818 50.6881L21.556 53.3411C19.2944 54.6966 17.8897 57.1762 17.8897 59.8134C17.8897 60.5338 17.9913 61.231 18.1805 61.891C18.1827 61.8995 18.1855 61.9079 18.1878 61.9164C18.1895 61.922 18.1912 61.9277 18.1929 61.9333C18.2194 62.0259 18.2482 62.1174 18.2787 62.2088H10.5999C9.44986 62.2088 8.51436 61.2728 8.51436 60.1222ZM17.215 66.5013C17.215 66.5408 17.1823 66.5736 17.1428 66.5736H13.9185C13.879 66.5736 13.8462 66.5408 13.8462 66.5013V64.3768H17.215V66.5013ZM66.4866 63.2194C66.4866 64.3068 65.6025 65.1909 64.5151 65.1909C39.5112 65.1909 25.407 65.1921 25.2918 65.1892C22.8213 65.1243 20.7606 63.3849 20.205 61.0667H35.2267C35.2363 61.0673 35.2453 61.0673 35.2549 61.0673C35.2645 61.0673 35.2741 61.0673 35.2837 61.0667H40.4716C40.4812 61.0673 40.4902 61.0673 40.4998 61.0673C40.5094 61.0673 40.519 61.0673 40.5286 61.0667H45.6414C45.651 61.0673 45.6606 61.0673 45.6696 61.0673C45.6792 61.0673 45.6888 61.0673 45.6984 61.0667H50.8863C50.8959 61.0673 50.9049 61.0673 50.9145 61.0673C50.9241 61.0673 50.9337 61.0673 50.9433 61.0667H66.4866V63.2194ZM69.2333 54.6311H68.6546V45.2428C68.6546 43.0432 66.8649 41.2535 64.6653 41.2535H63.9918C62.6859 41.2535 61.5263 42.084 61.1051 43.3199C60.1899 46.0112 57.6646 47.819 54.8219 47.819C52.038 47.819 49.5307 46.0609 48.5817 43.4441C48.1069 42.1337 46.8518 41.2535 45.4579 41.2535C43.0415 41.3156 42.1207 41.0164 40.7747 41.8215L36.1887 44.5698V29.5448L53.5409 37.87C53.6894 37.9411 53.8497 37.9767 54.0101 37.9767C54.1704 37.9767 54.3308 37.9411 54.4787 37.87L71.8315 29.5442V52.0324C71.832 53.4653 70.6662 54.6311 69.2333 54.6311Z" fill="white"/>
<path d="M52.8797 24.3022H52.1514C51.5524 24.3022 51.0674 24.7872 51.0674 25.3862C51.0674 25.9847 51.5524 26.4702 52.1514 26.4702H52.3806V30.2196H52.2485C51.6495 30.2196 51.1645 30.7045 51.1645 31.3035C51.1645 31.9026 51.6495 32.3875 52.2485 32.3875H54.6807C55.2797 32.3875 55.7646 31.9026 55.7646 31.3035C55.7646 30.7045 55.2797 30.2196 54.6807 30.2196H54.5486V25.9711C54.5486 25.0509 53.7999 24.3022 52.8797 24.3022Z" fill="white"/>
</g>
<defs>
<clipPath id="clip0">
<rect width="74" height="74" fill="white"/>
</clipPath>
</defs>
</svg>
