<svg width="142" height="142" viewBox="0 0 142 142" fill="none" xmlns="http://www.w3.org/2000/svg">
<path d="M29.5833 124.25H17.75V118.333C17.7761 95.4704 36.3037 76.9427 59.1667 76.9167H82.8333C105.696 76.9427 124.224 95.4704 124.25 118.333V124.25H112.417V118.333C112.397 102.003 99.1636 88.7696 82.8333 88.75H59.1667C42.8364 88.7696 29.6029 102.003 29.5833 118.333V124.25ZM71 71C54.6616 71 41.4167 57.7551 41.4167 41.4167C41.4167 25.0782 54.6616 11.8333 71 11.8333C87.3384 11.8333 100.583 25.0782 100.583 41.4167C100.564 57.747 87.3303 70.9804 71 71ZM71 23.6667C61.1969 23.6667 53.25 31.6136 53.25 41.4167C53.25 51.2197 61.1969 59.1667 71 59.1667C80.8031 59.1667 88.75 51.2197 88.75 41.4167C88.75 31.6136 80.8031 23.6667 71 23.6667Z" fill="#2E3A59"/>
</svg>
