<svg width="81" height="81" viewBox="0 0 81 81" fill="none" xmlns="http://www.w3.org/2000/svg">
<g clip-path="url(#clip0)">
<path d="M64.1242 67.5H20.2492C9.70023 67.5063 0.913491 59.413 0.0544525 48.899C-0.804586 38.3851 6.55187 28.9728 16.962 27.2666C21.7535 18.7714 30.7459 13.5118 40.4992 13.4998C46.581 13.4768 52.4887 15.5294 57.246 19.3185C61.9173 23.0238 65.2383 28.1643 66.696 33.9457C75.4167 35.2857 81.633 43.1174 80.9588 51.9146C80.2845 60.7118 72.9472 67.5046 64.1242 67.5ZM40.4992 20.25C33.1813 20.2586 26.4345 24.2058 22.8412 30.5809L21.2617 33.4125L18.0588 33.9356C11.1411 35.0946 6.26326 41.3582 6.83432 48.3492C7.40539 55.3401 13.235 60.7291 20.2492 60.75H64.1242C69.4182 60.7554 73.8226 56.6818 74.2297 51.4035C74.6367 46.1252 70.9089 41.4244 65.6767 40.6181L61.2352 39.9431L60.1485 35.5826C57.905 26.5606 49.796 20.233 40.4992 20.25ZM45.393 54H35.6055V43.875H26.9992L40.4992 30.375L53.9992 43.875H45.393V54Z" fill="#9A9A9A"/>
</g>
<defs>
<clipPath id="clip0">
<rect width="81" height="81" fill="white"/>
</clipPath>
</defs>
</svg>
